<?xml version="1.0" encoding="UTF-8" standalone="no"?>
<!-- Created with Inkscape (http://www.inkscape.org/) -->

<svg
   xmlns:dc="http://purl.org/dc/elements/1.1/"
   xmlns:cc="http://creativecommons.org/ns#"
   xmlns:rdf="http://www.w3.org/1999/02/22-rdf-syntax-ns#"
   xmlns:svg="http://www.w3.org/2000/svg"
   xmlns="http://www.w3.org/2000/svg"
   xmlns:xlink="http://www.w3.org/1999/xlink"
   xmlns:sodipodi="http://sodipodi.sourceforge.net/DTD/sodipodi-0.dtd"
   xmlns:inkscape="http://www.inkscape.org/namespaces/inkscape"
   width="744.09448819"
   height="1052.3622047"
   id="svg7576"
   version="1.1"
   inkscape:version="0.48.5 r10040"
   sodipodi:docname="New document 3">
  <defs
     id="defs7578">
    <pattern
       inkscape:collect="always"
       xlink:href="#pattern24247"
       id="pattern24257"
       patternTransform="translate(900,202.36218)" />
    <pattern
       inkscape:collect="always"
       xlink:href="#pattern24247"
       id="pattern24255"
       patternTransform="translate(-4473,-35.625)" />
    <pattern
       patternUnits="userSpaceOnUse"
       width="150"
       height="150"
       patternTransform="translate(-398,114.375)"
       id="pattern24247">
      <g
         style="fill:#000000;fill-opacity:0.20192309;stroke:none"
         transform="translate(-98.6266,-351.5217)"
         inkscape:tile-y0="352.04368"
         inkscape:tile-x0="99.6815"
         inkscape:tile-h="150.637"
         inkscape:tile-w="150.637"
         inkscape:tile-cy="427.36218"
         inkscape:tile-cx="175"
         id="g7652">
        <path
           transform="translate(496.6266,237.1467)"
           id="path16279-2"
           d="m -394.5,114.375 -1.4375,1.4375 c 4.8389,5.31684 10.32245,11.02458 16.40625,17 0.7078,-0.70727 1.37695,-1.42654 2.09375,-2.125 -0.091,-0.111 -0.18495,-0.20685 -0.28125,-0.3125 -2.3061,-2.61391 -3.85735,-4.12683 -6.34375,-6.59375 -1.1111,-1.11129 -2.2545,-2.2104 -3.375,-3.3125 -2.11209,-2.04209 -4.19987,-4.08597 -6.34375,-6.09375 l -0.71875,0 z m 3.875,0 c 4.62728,4.98708 9.40986,9.75146 14.46875,14.65625 0.5497,-0.56804 1.22875,-0.77838 1.78125,-1.34375 -4.70252,-4.6062 -9.05476,-9.06487 -13.03125,-13.3125 l -3.21875,0 z m 7.78125,0 c 3.49916,3.74018 7.00542,7.48569 10.375,11.34375 0.375,-1.00896 1.85045,-1.89979 2.59375,-2.5625 -2.68935,-2.94173 -5.41592,-5.85888 -8.125,-8.78125 l -4.84375,0 z m 8.5625,0 c 2.12095,2.25473 4.2513,4.49991 6.34375,6.78125 0.2324,-0.23225 0.3167,-0.30239 0.5625,-0.53125 0.5158,-0.51585 1.0384,-0.99286 1.5625,-1.5 -1.48465,-1.58799 -2.98061,-3.16526 -4.46875,-4.75 l -4,0 z m 7.78125,0 c 0.90005,0.90654 1.786,1.82917 2.6875,2.71875 0.8945,-0.89464 1.7842,-1.80126 2.6875,-2.6875 -0.0107,-0.0104 -0.0206,-0.0209 -0.0312,-0.0312 l -5.34375,0 z m 8.75,0 c -0.3272,0.33464 -0.65871,0.66555 -0.96875,1 3.5679,3.56778 7.15465,7.14616 10.71875,10.71875 2.1755,2.1752 4.2987,4.38249 6.4375,6.59375 0.098,-0.098 0.20025,-0.23146 0.28125,-0.3125 0.1015,-0.10154 0.9068,-0.81306 0.9375,-0.84375 1.1102,-1.03945 0.53625,-0.48758 1.46875,-1.34375 -2.5098,-2.47586 -5.0058,-4.9769 -7.4375,-7.53125 -2.58822,-2.73273 -5.19043,-5.45354 -7.6875,-8.28125 l -3.75,0 z m 6.90625,0 c 4.38433,4.64074 8.91209,9.10338 13.65625,13.71875 0.4881,-0.50643 1.10325,-0.68383 1.59375,-1.1875 -4.41144,-4.33056 -8.49141,-8.5291 -12.28125,-12.53125 l -2.96875,0 z m 6.90625,0 c 0.85823,0.79072 1.73957,1.59471 2.5625,2.34375 2.8695,2.58546 5.5471,5.0044 8.4375,7.53125 0.5938,-0.59362 1.1472,-1.16565 1.75,-1.75 -2.3851,-2.34547 -4.72765,-4.69766 -7.15625,-7 -0.65308,-0.61968 -0.80511,-0.74002 -1.21875,-1.125 l -4.375,0 z m 8.71875,0 c 0.0447,0.0461 0.0797,0.0781 0.125,0.125 2.0105,2.04728 3.9857,3.89185 6.0625,5.84375 0.3729,-0.37244 0.7433,-0.76155 1.125,-1.125 -1.53443,-1.65859 -3.117,-3.25401 -4.71875,-4.84375 l -2.59375,0 z m 6.6875,0 c 0.94318,0.88239 1.89745,1.75431 2.84375,2.625 0.6566,-0.67493 1.1553,-1.54494 1.8125,-2.21875 -0.14946,-0.14073 -0.28987,-0.26679 -0.4375,-0.40625 l -4.21875,0 z m 10.34375,0 c -0.52835,0.52307 -1.06082,1.0415 -1.59375,1.5625 5.7944,5.63309 11.2819,11.06795 16.5625,16.875 l 2.125,-2.15625 c -2.8995,-3.4043 -5.96545,-6.6332 -9.03125,-9.875 -2.06805,-2.1737 -4.1835,-4.2939 -6.3125,-6.40625 l -1.75,0 z m 5.28125,0 c 4.19306,4.45265 8.39061,8.90145 12.59375,13.34375 0.2793,0.30052 0.56565,0.63677 0.84375,0.9375 0.5842,-0.6026 1.1659,-1.23131 1.8125,-1.90625 -1.0436,-1.14558 -2.0676,-2.2741 -3.125,-3.40625 -2.76813,-3.02127 -5.59575,-5.98701 -8.40625,-8.96875 l -3.71875,0 z m 7.125,0 c 2.40537,2.55571 4.81943,5.10323 7.1875,7.6875 1.2185,1.30483 2.427,2.61132 3.625,3.9375 l 0.34375,-0.34375 c 0.6907,-0.70909 1.34465,-1.41152 2.03125,-2.125 -1.5818,-1.62288 -3.13835,-3.22101 -4.71875,-4.84375 -1.34573,-1.43132 -2.68891,-2.87559 -4.03125,-4.3125 l -4.4375,0 z m 8.59375,0 c 2.31423,2.42164 4.54579,4.79179 6.625,7.0625 l 1.9375,-1.09375 c -1.83138,-2.02949 -3.68222,-4.00452 -5.5625,-5.96875 l -3,0 z m 7.15625,0 c 0.89145,0.85898 1.78492,1.71603 2.6875,2.5625 l 1.65625,-1.65625 c -0.27316,-0.29779 -0.56673,-0.60598 -0.84375,-0.90625 l -3.5,0 z m 9.28125,0 c -0.20068,0.18036 -0.42215,0.39152 -0.4375,0.40625 -1.216,1.1453 -0.6031,0.55587 -1.625,1.5 2.5649,2.52812 5.11635,5.10316 7.59375,7.71875 3.271,3.46737 6.59165,6.92521 9.65625,10.59375 0.1183,-0.11837 0.17545,-0.18572 1.34375,-1.40625 0.6172,-0.64135 1.23575,-1.31836 1.84375,-1.96875 -3.644,-3.64408 -7.2363,-7.31732 -10.875,-10.96875 -1.95104,-1.95085 -3.88801,-3.90174 -5.8125,-5.875 l -1.6875,0 z m 4.65625,0 c 4.38748,4.14262 8.81226,8.25746 13.34375,12.25 0.8034,0.68886 1.63,1.34423 2.4375,2.03125 l 1,-1 c -1.886,-1.98641 -3.81405,-3.9687 -5.71875,-5.9375 -1.1306,-1.14905 -2.27005,-2.29432 -3.40625,-3.4375 -1.44032,-1.45132 -2.68133,-2.648 -3.9375,-3.90625 l -3.71875,0 z m 8.59375,0 c 0.57461,0.49827 1.15067,0.99335 1.71875,1.5 3.2118,2.8355 6.42655,5.65277 9.65625,8.46875 l 1,-0.96875 c -3.72179,-4.66759 -4.59272,-4.99974 -8.46875,-9 l -3.90625,0 z m 5.875,0 c 1.98473,1.80986 3.98592,3.60056 6,5.375 0.8024,0.68639 1.60115,1.37731 2.40625,2.0625 0.3378,-0.33771 0.6623,-0.66228 1,-1 -1.8822,-1.98251 -3.81755,-3.94198 -5.71875,-5.90625 -0.17471,-0.17755 -0.35616,-0.3526 -0.53125,-0.53125 l -3.15625,0 z m 7.9375,0 c 1.3195,1.26255 2.6334,2.52919 3.96875,3.78125 0.5136,-0.51371 1.0491,-1.01774 1.5625,-1.53125 -0.75482,-0.90218 -1.40933,-1.60126 -2.03125,-2.25 l -3.5,0 z m -68.6875,2.875 c -2.6579,3.06 -5.37385,6.0595 -8.15625,9 -4.4098,4.5902 -3.4055,3.62195 -7.75,7.96875 -0.1792,0.1794 -0.45285,0.4843 -0.65625,0.6875 0.7968,0.829 1.5793,1.6704 2.375,2.5 2.8979,-3.2164 5.80375,-6.4239 8.71875,-9.625 2.5418,-2.7701 5.00975,-5.5867 7.46875,-8.4375 -0.6835,-0.6836 -1.3202,-1.40625 -2,-2.09375 z m -38.40625,0.34375 c -2.6411,3.0772 -5.31815,6.1153 -8.09375,9.0625 -4.4015,4.5983 -3.4056,3.5907 -7.75,7.9375 -0.1792,0.1794 -0.4841,0.45285 -0.6875,0.65625 0.8669,0.8992 1.7615,1.7854 2.625,2.6875 2.8843,-3.2303 5.7853,-6.38045 8.6875,-9.59375 2.5326,-2.7801 4.9958,-5.6321 7.4375,-8.5 -0.7422,-0.7423 -1.47855,-1.5054 -2.21875,-2.25 z m -37,0.21875 c -0.073,0.0771 -0.1462,0.1421 -0.21875,0.21875 l 0,3.9375 c 0.72057,-0.74666 1.45156,-1.48807 2.1875,-2.28125 -0.6187,-0.60175 -1.34995,-1.27325 -1.96875,-1.875 z m 112.875,0.90625 c -2.0736,2.203 -3.9657,4.2569 -6.125,6.375 -5.4036,5.2191 -5.2451,6.642 -11.0625,11.4375 l 2.40625,2.0625 c 4.6823,-5.7203 6.1347,-6.60805 11.25,-11.90625 1.9376,-2.0083 3.8584,-4.03965 5.75,-6.09375 -0.675,-0.6565 -1.54465,-1.2173 -2.21875,-1.875 z M -248,118.9375 c -0.22085,0.21267 -0.38827,0.36242 -0.65625,0.625 -3.9312,3.85911 -12.2136,12.77266 -14.9375,15.25 0.7079,0.70782 1.4256,1.40863 2.125,2.125 0.4858,-0.5142 0.9482,-1.08315 1.4375,-1.59375 3.97982,-4.22662 8.06693,-8.32663 12.03125,-12.5625 l 0,-3.84375 z m -70.4375,1.90625 c -0.346,0.3814 -0.49265,0.5413 -1.59375,1.75 -4.3285,4.6923 -8.6887,9.361 -13.1875,13.875 -0.711,0.71 -1.414,1.4141 -2.125,2.125 0.5905,0.7152 1.1599,1.44095 1.75,2.15625 0.9681,-0.9866 1.93815,-2.0133 2.90625,-3 4.4614,-4.6062 8.9593,-9.1649 13.5,-13.6875 0.56,-0.5414 0.65365,-0.6241 0.84375,-0.8125 -0.6903,-0.8027 -1.40285,-1.60415 -2.09375,-2.40625 z M -356.46875,121.5 c -0.3451,0.382 -0.5291,0.56685 -1.625,1.78125 -4.3127,4.7083 -8.6266,9.3602 -13.125,13.875 -0.70597,0.70478 -1.41916,1.41914 -2.125,2.125 0.6466,0.7714 1.25945,1.57185 1.90625,2.34375 0.9678,-0.9864 1.93805,-2.0134 2.90625,-3 4.4539,-4.6138 8.92755,-9.1659 13.46875,-13.6875 0.5604,-0.5419 0.65385,-0.6241 0.84375,-0.8125 -0.7538,-0.8679 -1.4943,-1.7584 -2.25,-2.625 z m -37.34375,0.84375 c -1.37046,1.60563 -2.77645,3.18873 -4.1875,4.75 l 0,5 c 2.19106,-2.44446 4.34731,-4.93161 6.46875,-7.4375 -0.7722,-0.77259 -1.51015,-1.53879 -2.28125,-2.3125 z m 113.34375,0.46875 c -3.8161,3.5304 -7.3485,7.3052 -11.0625,10.9375 -1.8441,1.9014 -3.6833,3.8214 -5.5,5.75 0.5534,0.5533 0.8051,0.83625 1.375,1.40625 5.2019,-4.3947 5.23,-5.908 10.4375,-10.9375 2.048,-2.0096 3.89195,-3.9862 5.84375,-6.0625 -0.3724,-0.3726 -0.73045,-0.71205 -1.09375,-1.09375 z m -34.28125,1.65625 c -5.4641,5.6363 -10.90525,11.30835 -16.34375,16.96875 -0.2751,0.2751 -0.56685,0.50735 -0.84375,0.78125 0.271,0.3064 0.57495,0.6287 0.84375,0.9375 0.253,0.2884 0.46455,0.5875 0.71875,0.875 0.51,-0.5316 1.0293,-1.0655 1.625,-1.6875 0.8651,-0.9143 1.73375,-1.80015 2.59375,-2.71875 3.0267,-3.2327 2.50975,-2.7825 5.59375,-6 2.4229,-2.5261 4.88585,-5.04035 7.34375,-7.53125 -0.5044,-0.5507 -1.02745,-1.0734 -1.53125,-1.625 z m 66.75,0.84375 c -1.12478,1.11453 -2.23631,2.24336 -3.53125,3.53125 -1.0986,1.09842 -2.2046,2.19167 -3.3125,3.28125 -2.1469,2.09459 -4.23505,4.24167 -6.40625,6.3125 l 0.875,0.875 c 0.7009,0.6854 1.4254,1.34444 2.125,2.03125 2.3331,-2.48258 4.71605,-4.87503 7.09375,-7.3125 1.05376,-1.07155 2.0974,-2.12291 3.15625,-3.1875 l 0,-5.53125 z m -104.5,0.125 c -5.4578,5.6426 -10.8838,11.29855 -16.3125,16.96875 -0.2752,0.2751 -0.5373,0.5373 -0.8125,0.8125 0.2958,0.3311 0.61065,0.6688 0.90625,1 0.2766,0.3118 0.50395,0.6263 0.78125,0.9375 0.5093,-0.5324 1.0263,-1.03745 1.625,-1.65625 0.862,-0.9174 1.7066,-1.85845 2.5625,-2.78125 3.0176,-3.2418 2.51565,-2.74535 5.59375,-5.96875 2.4167,-2.5322 4.8564,-5.03865 7.3125,-7.53125 -0.5491,-0.5969 -1.10715,-1.18435 -1.65625,-1.78125 z m 75.28125,0.59375 c -2.3456,2.3856 -4.66525,4.8222 -6.96875,7.25 -3.0578,3.2206 -2.54005,2.7551 -5.53125,6 -0.8507,0.9218 -1.7077,1.80095 -2.5625,2.71875 -0.4188,0.4418 -0.7645,0.84105 -1.125,1.21875 l 0.6875,0.6875 1.375,1.34375 c 2.4746,-2.5086 5.65855,-6.01245 8.40625,-9.03125 2.5854,-2.8692 4.9733,-5.4842 7.5,-8.375 -0.5935,-0.5936 -1.19605,-1.2105 -1.78125,-1.8125 z m -111.625,0.4375 c -2.3283,2.29711 -4.2791,4.52818 -6.5625,6.90625 -1.23972,1.29813 -1.7905,1.85137 -2.59375,2.6875 l 0,3.4375 c 3.94568,-3.86636 7.78348,-7.68432 11.125,-11.0625 -0.6559,-0.6562 -1.31275,-1.3127 -1.96875,-1.96875 z m 77.53125,1.40625 c -0.1425,0.1611 -0.6573,0.68675 -0.6875,0.71875 -4.7284,5.1646 -9.60155,10.16 -14.40625,15.25 -0.6501,0.6794 -1.2888,1.3814 -1.9375,2.0625 0.3403,0.3604 0.6606,0.7014 1,1.0625 0.3305,0.3522 0.63995,0.709 0.96875,1.0625 0.8557,-0.9619 1.7064,-1.94555 2.5625,-2.90625 4.7138,-5.1837 9.55145,-10.23345 14.40625,-15.28125 -0.636,-0.6545 -1.27015,-1.31425 -1.90625,-1.96875 z m -37.4375,1.28125 c -0.1426,0.1609 -0.6571,0.68695 -0.6875,0.71875 -4.7093,5.1835 -9.5827,10.17855 -14.375,15.28125 -0.6483,0.6806 -1.32325,1.3786 -1.96875,2.0625 0.3704,0.3905 0.7555,0.76525 1.125,1.15625 0.3598,0.3815 0.73365,0.7434 1.09375,1.125 0.8502,-0.9673 1.67945,-1.94075 2.53125,-2.90625 4.6932,-5.2042 9.49785,-10.256 14.34375,-15.3125 -0.6915,-0.7101 -1.3711,-1.4151 -2.0625,-2.125 z m -37,0.40625 c -0.3463,0.38453 -0.5263,0.55951 -1.625,1.78125 -3.49773,3.83034 -7.01995,7.60582 -10.625,11.3125 l 0,4.46875 c 0.0826,-0.0838 0.16767,-0.16611 0.25,-0.25 4.4724,-4.63664 8.96925,-9.27111 13.53125,-13.8125 0.5624,-0.54412 0.65285,-0.62292 0.84375,-0.8125 -0.7877,-0.89944 -1.5873,-1.78792 -2.375,-2.6875 z m 112.96875,0.90625 c -6.2099,6.3254 -12.12375,12.06985 -17.59375,17.09375 l 1.03125,1.875 c 6.1301,-5.5469 11.84685,-11.30615 17.78125,-17.40625 -0.5064,-0.4878 -0.71525,-1.0718 -1.21875,-1.5625 z m -34.9375,0.875 c -5.6111,5.6898 -11.30945,11.27225 -17.28125,16.59375 -0.2554,0.2245 -0.52615,0.43185 -0.78125,0.65625 0.6473,0.7012 1.2911,1.4235 1.9375,2.125 0.5074,-0.475 1.02455,-0.9617 1.53125,-1.4375 5.5334,-5.2984 11.04595,-10.5917 16.59375,-15.875 -0.6638,-0.6836 -1.3366,-1.3789 -2,-2.0625 z m -37.125,1.5625 c -5.6075,5.6939 -11.3139,11.2676 -17.3125,16.5625 -0.257,0.2229 -0.52445,0.4646 -0.78125,0.6875 0.7055,0.7594 1.39055,1.4888 2.09375,2.25 0.508,-0.4742 1.02455,-0.93035 1.53125,-1.40625 5.5436,-5.288 11.09725,-10.57215 16.65625,-15.84375 -0.7216,-0.7416 -1.4659,-1.5083 -2.1875,-2.25 z m 75,0.21875 c -6.2083,6.3271 -12.1475,12.0467 -17.625,17.0625 l 1.09375,1.9375 c 6.138,-5.5384 11.84945,-11.2722 17.78125,-17.375 -0.5208,-0.5023 -0.7317,-1.1197 -1.25,-1.625 z m -112.25,0.0937 c -5.31984,5.50673 -10.61513,11.02855 -15.90625,16.5625 l 0,2.8125 c 0.17011,0.17701 0.34244,0.35194 0.5,0.53125 0.5097,-0.53663 0.99735,-1.09261 1.59375,-1.71875 0.8641,-0.92334 1.7016,-1.7928 2.5625,-2.71875 3.0271,-3.26012 2.50435,-2.79107 5.59375,-6.03125 2.4259,-2.54466 4.9091,-5.05701 7.375,-7.5625 -0.5729,-0.6195 -1.14745,-1.2543 -1.71875,-1.875 z M -248,133.90625 c -2.8201,3.05055 -6.0601,6.52846 -8.4375,8.90625 l 2.28125,2.25 c 2.8807,-3.59238 4.12243,-4.89252 6.15625,-7.15625 l 0,-4 z m -130.40625,1.5 c -1.1747,1.1746 -2.3094,2.30225 -3.375,3.40625 2.0074,1.895 3.99145,3.8248 5.96875,5.75 3.6797,3.7523 7.52125,7.3281 11.09375,11.1875 0.7272,-1.2252 2.30345,-2.2923 3.21875,-3.1875 -3.9113,-4.1312 -8.09215,-8.0211 -12.03125,-12.125 -1.6276,-1.6706 -3.2638,-3.34355 -4.875,-5.03125 z m 37.15625,0.46875 -2.9375,3.3125 c 5.4154,4.2677 5.4026,5.18685 10.375,9.90625 2.4386,2.3306 4.74225,4.2702 7.09375,6.6875 0.8024,-0.8209 1.66545,-1.1803 2.46875,-2 -2.499,-2.6068 -4.95545,-5.2191 -7.46875,-7.8125 -4.8193,-5.0747 -5.15335,-4.58535 -9.53125,-10.09375 z m 35.78125,0.9375 -1.84375,2.25 c 2.0603,1.6394 6.63635,6.2094 11.96875,11.375 2.0226,1.9562 3.84285,3.7731 5.90625,5.6875 0.6014,-0.6195 1.3363,-1.3178 1.9375,-1.9375 -2.2159,-2.0957 -4.3004,-4.04355 -6.4375,-6.21875 -3.2811,-2.9605 -6.20435,-5.86795 -11.53125,-11.15625 z m 39.125,0.9375 c -1.0014,0.9582 -2.04265,1.93475 -3.03125,2.90625 0.5495,0.6017 1.09655,1.2208 1.65625,1.8125 2.2547,2.3871 4.0498,4.06695 6.375,6.40625 1.0996,1.0996 2.158,2.23655 3.25,3.34375 2.094,2.1513 4.21215,4.261 6.28125,6.4375 l 0.96875,-0.96875 c 0.7258,-0.7443 1.49175,-1.47535 2.21875,-2.21875 -2.4892,-2.3312 -4.9329,-4.71585 -7.375,-7.09375 -1.1041,-1.0856 -2.2177,-2.18625 -3.3125,-3.28125 -2.45,-2.4315 -4.0099,-3.9544 -6.3125,-6.5 -0.252,-0.2797 -0.46745,-0.56305 -0.71875,-0.84375 z m -115.625,1.5 -0.34375,0.34375 c -0.5067,0.5238 -1.02465,1.039 -1.53125,1.5625 5.2693,5.8782 10.68325,11.6315 16.03125,17.4375 0.5185,-0.4983 1.02275,-1.02295 1.53125,-1.53125 l 0.375,-0.34375 c -1.4983,-1.5969 -1.58125,-1.6448 -4.84375,-5.0625 -3.8236,-4.0648 -7.53405,-8.21455 -11.21875,-12.40625 z M -248,140.625 c -0.52104,0.48924 -1.03946,0.98188 -1.5625,1.46875 -1.2713,1.20233 -2.5235,2.44003 -3.8125,3.625 l 0.21875,0.21875 c 0.5737,0.55529 1.1735,1.10378 1.75,1.65625 1.14599,-1.12154 2.27036,-2.25217 3.40625,-3.375 l 0,-3.59375 z m -97.875,0.25 c -0.1462,0.048 -0.33645,0.1888 -0.53125,0.375 -0.5844,0.5581 -1.31825,1.56805 -1.84375,2.09375 0.6021,0.6022 1.1485,1.2111 1.75,1.8125 4.4737,4.4568 9.14475,8.7613 13.84375,13 1.1475,1.018 1.31355,1.1965 1.65625,1.5 0.7183,-0.7183 1.4689,-1.4693 2.1875,-2.1875 -0.5778,-0.578 -1.163,-1.15015 -1.75,-1.71875 -3.2975,-3.2434 -6.63655,-6.4727 -10.09375,-9.5625 -1.7969,-1.6064 -3.34545,-3.9061 -5.21875,-5.3125 z m 36.03125,0.6875 c -0.9347,0.9023 -1.8772,1.7862 -2.8125,2.6875 3.2509,2.891 6.48555,5.80895 9.71875,8.71875 2.7968,2.5392 5.6744,5.02365 8.5625,7.46875 0.7723,-0.7723 1.56995,-1.5417 2.34375,-2.3125 -3.0986,-2.6449 -6.19315,-5.3399 -9.15625,-8.125 -4.6225,-4.4175 -3.60215,-3.4491 -7.96875,-7.8125 -0.1802,-0.1802 -0.4833,-0.421 -0.6875,-0.625 z m 39.75,0.46875 c -0.2298,0.8545 -1.4711,1.4903 -2.0625,2 4.321,4.6401 8.7523,9.19325 13.0625,13.84375 1.2065,1.2803 2.4365,2.5765 3.625,3.875 l 0.28125,-0.28125 c 0.5894,-0.608 1.13325,-1.2008 1.71875,-1.8125 -1.5612,-1.5969 -3.09555,-3.18515 -4.65625,-4.78125 -4.0199,-4.2412 -8.06405,-8.49645 -11.96875,-12.84375 z m -115.46875,0.4375 c -0.094,0.094 -0.16215,0.2051 -1.09375,1.1875 -0.492,0.5166 -0.98375,0.9764 -1.46875,1.5 3.5157,3.5158 7.01885,7.07375 10.53125,10.59375 2.1439,2.1439 4.2617,4.3264 6.375,6.5 0.087,-0.087 0.1787,-0.20985 0.25,-0.28125 0.09,-0.09 0.75295,-0.7234 0.78125,-0.75 0.9806,-0.9114 0.4843,-0.441 1.3125,-1.1875 -2.4713,-2.4421 -4.9064,-4.89855 -7.3125,-7.40625 -3.1716,-3.3299 -6.369,-6.66625 -9.375,-10.15625 z m 36.65625,1.8125 c -0.6127,0.6128 -1.48095,1.4496 -2.09375,2.0625 0.6021,0.6021 1.2117,1.2114 1.8125,1.8125 4.4753,4.4554 9.1131,8.79225 13.8125,13.03125 1.1473,1.0176 1.3436,1.16605 1.6875,1.46875 0.7182,-0.7183 1.4044,-1.44005 2.125,-2.15625 -0.5869,-0.5685 -1.13635,-1.1142 -1.71875,-1.6875 -3.2983,-3.2428 -6.6056,-6.50355 -10.0625,-9.59375 -2.1658,-1.8787 -4.6627,-4.0407 -5.5625,-4.9375 z M -274,146.09375 c -0.086,0.086 -0.1785,0.20985 -0.25,0.28125 -0.09,0.09 -0.75255,0.69325 -0.78125,0.71875 -0.9808,0.9115 -0.45335,0.4413 -1.28125,1.1875 2.4714,2.4421 4.9095,4.89535 7.3125,7.40625 3.1661,3.3211 6.3748,6.6433 9.375,10.125 0.089,-0.089 0.1643,-0.1774 1.0625,-1.125 0.4918,-0.5165 0.98355,-1.00785 1.46875,-1.53125 -3.5159,-3.516 -7.01955,-7.07245 -10.53125,-10.59375 -2.1445,-2.143 -4.2616,-4.29515 -6.375,-6.46875 z m -115.75,0.46875 -0.28125,0.28125 c -0.5894,0.6078 -1.13335,1.2008 -1.71875,1.8125 1.5612,1.5967 3.09485,3.2172 4.65625,4.8125 4.02,4.2412 8.06435,8.49675 11.96875,12.84375 0.23,-0.8541 1.471,-1.52145 2.0625,-2.03125 -4.3212,-4.64 -8.7522,-9.19335 -13.0625,-13.84375 -1.2058,-1.2812 -2.4365,-2.5764 -3.625,-3.875 z m 37.15625,0.0625 -3,3.34375 c 5.4154,4.2678 5.43405,5.18665 10.40625,9.90625 2.4393,2.3298 4.7733,4.2706 7.125,6.6875 0.803,-0.82 1.6968,-1.1802 2.5,-2 -2.4982,-2.6077 -5.01785,-5.2188 -7.53125,-7.8125 -4.8194,-5.0746 -5.1222,-4.6166 -9.5,-10.125 z M -248,146.75 c -0.70751,0.69166 -1.41537,1.38327 -2.125,2.0625 0.72947,0.72951 1.42577,1.40332 2.125,2.09375 l 0,-4.15625 z m -65.3125,0.0312 -0.28125,0.28125 c -0.3365,0.3365 -0.85535,0.91505 -1.15625,1.21875 5.739,5.909 11.60095,11.84185 16.59375,16.78125 0.6563,-0.6561 1.31105,-1.2828 1.96875,-1.9375 -2.2974,-2.3283 -4.5594,-4.2792 -6.9375,-6.5625 -4.9086,-4.688 -5.3374,-5.14215 -10.1875,-9.78125 z m 36.3125,2.25 c -0.5184,0.4983 -1.02315,1.02295 -1.53125,1.53125 l -0.375,0.3125 c 1.4983,1.5969 1.58115,1.6452 4.84375,5.0625 3.8237,4.0652 7.53405,8.21465 11.21875,12.40625 l 0.3125,-0.3125 c 0.5063,-0.5248 1.02455,-1.0388 1.53125,-1.5625 -5.2692,-5.8777 -10.6518,-11.6313 -16,-17.4375 z m -40.15625,0.1875 c -0.8006,0.6744 -1.60555,1.3879 -2.40625,2.0625 0.9907,0.9723 1.97695,1.93435 2.96875,2.90625 4.6367,4.4721 9.23965,8.96905 13.78125,13.53125 0.544,0.5625 0.65365,0.65365 0.84375,0.84375 0.8999,-0.7873 1.7886,-1.55625 2.6875,-2.34375 -0.3844,-0.3463 -0.55985,-0.49475 -1.78125,-1.59375 -4.7359,-4.3245 -9.43395,-8.70035 -13.96875,-13.21875 -0.7132,-0.714 -1.4119,-1.4716 -2.125,-2.1875 z m -76.25,0.46875 -0.96875,0.9375 c -0.7259,0.7442 -1.42665,1.47835 -2.15625,2.21875 2.4893,2.3309 4.8709,4.71615 7.3125,7.09375 1.1043,1.0859 2.24575,2.2206 3.34375,3.3125 2.4493,2.4324 3.97715,3.92495 6.28125,6.46875 0.253,0.2791 0.46875,0.56145 0.71875,0.84375 1.0012,-0.9581 2.04275,-1.93485 3.03125,-2.90625 -0.5486,-0.6026 -1.09695,-1.2196 -1.65625,-1.8125 -2.2547,-2.3869 -4.0488,-4.0365 -6.375,-6.375 -1.0995,-1.0995 -2.158,-2.23645 -3.25,-3.34375 -2.0939,-2.151 -4.21345,-4.2591 -6.28125,-6.4375 z m 37.34375,1.6875 c -0.7182,0.7187 -1.43785,1.4692 -2.15625,2.1875 2.8775,3.3771 5.92765,6.56515 8.96875,9.78125 2.4117,2.5364 4.8838,5.01235 7.375,7.46875 0.8157,-0.8157 1.6218,-1.6217 2.4375,-2.4375 -5.841,-5.6782 -11.3084,-11.1552 -16.625,-17 z m 35.21875,1.28125 c -0.3437,0.3084 -0.68595,0.59935 -1.03125,0.90625 -0.31776,0.28301 -0.61996,0.56155 -0.9375,0.84375 0.5363,0.51 1.0036,1.0235 1.625,1.625 0.9238,0.8636 1.85575,1.7637 2.78125,2.625 3.2602,3.0269 2.79055,2.50445 6.03125,5.59375 2.5446,2.4259 5.08905,4.8462 7.59375,7.3125 0.6199,-0.572 1.22335,-1.1159 1.84375,-1.6875 -5.6712,-5.4788 -11.3629,-10.9262 -17.0625,-16.375 l -0.84375,-0.84375 z m 39.25,0.21875 c -0.42952,0.38934 -0.86941,0.77547 -1.3125,1.21875 1.66231,1.636 3.31064,3.2975 4.96875,4.9375 4.05737,3.98553 8.03212,8.11329 12.09375,12.09375 0.33188,-0.35185 0.60248,-1.09999 1.21875,-1.21875 -3.77015,-3.66154 -7.42654,-7.42271 -11.15625,-11.125 -1.93743,-1.96486 -3.88803,-3.92804 -5.8125,-5.90625 z m -78.53125,1.1875 c -2.0727,2.2036 -3.9654,4.28835 -6.125,6.40625 -5.4035,5.2191 -5.21415,6.67315 -11.03125,11.46875 l 2.40625,2.03125 c 4.6827,-5.7202 6.1348,-6.6398 11.25,-11.9375 1.9376,-2.0086 3.859,-4.0077 5.75,-6.0625 -0.6741,-0.6573 -1.5758,-1.24895 -2.25,-1.90625 z m -36.90625,0.125 c -0.32303,0.32982 -0.6458,0.66554 -0.96875,1 l 0,4.90625 c 0.37725,-0.38389 0.74523,-0.77488 1.125,-1.15625 0.6975,-0.6965 1.45675,-1.39845 2.15625,-2.09375 -0.7555,-0.87717 -1.5577,-1.77873 -2.3125,-2.65625 z m 73.59375,0.5625 c -2.6405,3.0772 -5.3492,6.14625 -8.125,9.09375 -4.4015,4.598 -3.37465,3.5906 -7.71875,7.9375 -0.1792,0.1794 -0.4842,0.45295 -0.6875,0.65625 0.867,0.8992 1.7605,1.7861 2.625,2.6875 2.8843,-3.2301 5.7849,-6.44265 8.6875,-9.65625 2.5324,-2.7798 4.9957,-5.60115 7.4375,-8.46875 -0.7425,-0.7424 -1.47855,-1.5053 -2.21875,-2.25 z m 37.03125,0.0937 c 0.3736,0.4212 0.7519,0.85915 1.125,1.28125 -0.1908,0.1907 -0.28355,0.2616 -0.84375,0.8125 -4.5815,4.5584 -9.0812,9.212 -13.5625,13.875 -0.809,0.8275 -1.6284,1.6099 -2.4375,2.4375 0.6528,0.6524 1.31645,1.3476 1.96875,2 0.1372,-0.1372 0.26945,-0.26925 0.40625,-0.40625 5.4157,-5.6897 10.83305,-11.4036 16.28125,-17.0625 -0.9757,-0.9756 -1.971,-1.9526 -2.9375,-2.9375 z M -248,156.125 c -4.96401,5.23112 -9.96092,10.43779 -14.9375,15.65625 -0.4664,0.49745 -0.9105,1.00156 -1.375,1.5 0.7504,0.69459 1.5011,1.33468 2.25,2.03125 0.2169,-0.25371 0.43775,-0.49749 0.65625,-0.75 4.3024,-4.87821 8.81256,-9.53715 13.40625,-14.125 l 0,-4.3125 z M -393.40625,158 c -0.3071,0.44583 -0.5533,0.8806 -0.875,1.3125 -1.28892,1.73054 -2.28883,2.83487 -3.71875,4.4375 l 0,4.96875 c 2.79899,-2.76868 5.5925,-5.54303 8.40625,-8.28125 L -393.40625,158 z m 37.75,0.1875 c -3.8163,3.5306 -7.3494,7.33575 -11.0625,10.96875 -1.8443,1.9013 -3.7463,3.78885 -5.5625,5.71875 l 0.0312,0 1.40625,1.40625 c 5.2015,-4.3947 5.2301,-5.9082 10.4375,-10.9375 2.0473,-2.0104 3.89225,-3.95375 5.84375,-6.03125 -0.3725,-0.3725 -0.72975,-0.744 -1.09375,-1.125 z m 36.53125,0.5 c -0.3446,0.3829 -0.49875,0.50355 -1.59375,1.71875 -4.3128,4.7085 -8.65775,9.4231 -13.15625,13.9375 -0.7108,0.71 -1.475,1.4156 -2.1875,2.125 0.6468,0.7717 1.2907,1.50965 1.9375,2.28125 0.9679,-0.9863 1.9692,-1.9507 2.9375,-2.9375 4.4538,-4.6137 8.92735,-9.2285 13.46875,-13.75 0.5603,-0.5417 0.65365,-0.6241 0.84375,-0.8125 -0.7547,-0.8671 -1.4944,-1.696 -2.25,-2.5625 z m 37.0625,0.53125 c -2.4594,2.3947 -4.4395,4.73775 -6.8125,7.21875 -4.6786,4.9206 -5.6797,5.08965 -9.75,10.15625 0.4339,0.4335 0.8792,0.8789 1.3125,1.3125 0.073,-0.054 0.15215,-0.1283 0.21875,-0.1875 5.9863,-5.1938 11.637,-10.6763 17.1875,-16.3125 -0.7204,-0.7206 -1.43545,-1.4668 -2.15625,-2.1875 z m -70.34375,2.21875 c -2.3454,2.3855 -4.6967,4.79105 -7,7.21875 -3.056,3.2224 -2.5087,2.72385 -5.5,5.96875 -0.8499,0.9225 -1.709,1.86175 -2.5625,2.78125 -0.4185,0.4417 -0.7633,0.77915 -1.125,1.15625 l 0.6875,0.6875 1.3125,1.34375 c 2.4719,-2.5073 5.6966,-5.95745 8.4375,-8.96875 2.5854,-2.8694 5.00465,-5.51585 7.53125,-8.40625 -0.5935,-0.5936 -1.19665,-1.17825 -1.78125,-1.78125 z m 73.625,0.5625 c -0.1432,0.1633 -0.6577,0.68595 -0.6875,0.71875 -4.7167,5.2604 -9.65675,10.3331 -14.46875,15.5 -0.6524,0.6878 -1.32065,1.3698 -1.96875,2.0625 0.4252,0.4467 0.85795,0.89595 1.28125,1.34375 0.4142,0.4359 0.8351,0.8777 1.25,1.3125 0.8501,-0.9826 1.7113,-1.9561 2.5625,-2.9375 4.6982,-5.2833 9.53375,-10.4492 14.40625,-15.5625 -0.7936,-0.8121 -1.5799,-1.627 -2.375,-2.4375 z m -36.34375,0.59375 c -5.4576,5.643 -10.91475,11.3301 -16.34375,17 -0.275,0.2751 -0.56655,0.5386 -0.84375,0.8125 0.2957,0.3313 0.61045,0.6687 0.90625,1 0.2765,0.312 0.56865,0.624 0.84375,0.9375 0.5075,-0.5337 0.99865,-1.0646 1.59375,-1.6875 0.8604,-0.9188 1.705,-1.828 2.5625,-2.75 3.0175,-3.2417 2.51545,-2.74495 5.59375,-5.96875 2.4165,-2.5322 4.8562,-5.03885 7.3125,-7.53125 -0.55,-0.5961 -1.0764,-1.2149 -1.625,-1.8125 z m -74.3125,0.125 c -2.8334,2.7429 -5.6463,5.51846 -8.4375,8.3125 -0.0418,0.0418 -0.0832,0.0832 -0.125,0.125 l 0,4.15625 c 3.54153,-3.58816 7.14857,-7.09376 10.8125,-10.5625 -0.1366,-0.1183 -0.2431,-0.22021 -0.375,-0.34375 -0.6184,-0.56745 -1.2531,-1.12359 -1.875,-1.6875 z m 141.4375,2 c -3.8785,3.94543 -7.78752,7.86248 -11.65625,11.8125 l 1.09375,1.0625 c 3.3948,-3.39489 6.76045,-6.79162 10.15625,-10.1875 0.13515,-0.13506 0.27113,-0.27094 0.40625,-0.40625 l 0,-2.28125 z m -138.3125,0.625 c -1.8841,2.01561 -3.7687,3.98886 -5.6875,5.96875 -2.02533,1.97953 -4.00085,4.01599 -6,6.03125 l 0,7.3125 c 3.58199,-3.4888 6.97945,-7.17167 10.59375,-10.625 1.6731,-1.62217 3.3689,-3.20977 5.0625,-4.8125 -1.3533,-1.35333 -2.69905,-2.64484 -3.96875,-3.875 z m 38.34375,0.53125 c -6.2105,6.3245 -12.1549,12.00765 -17.625,17.03125 l 1.0625,1.90625 c 6.1298,-5.547 11.78455,-11.2747 17.71875,-17.375 -0.5062,-0.4876 -0.65285,-1.0718 -1.15625,-1.5625 z m 73.5,0.4375 c -0.1393,0.1393 -0.2291,0.2476 -0.6875,0.6875 -4.5816,4.5584 -9.11135,9.18135 -13.59375,13.84375 -0.8241,0.8428 -1.6117,1.69025 -2.4375,2.53125 l 1.9375,1.96875 c 0.1523,-0.1523 0.31665,-0.348 0.46875,-0.5 5.3412,-5.6119 10.6905,-11.1682 16.0625,-16.75 -0.5799,-0.5799 -1.1783,-1.19245 -1.75,-1.78125 z m -36.96875,0.0312 c -0.1427,0.1612 -0.5963,0.68545 -0.625,0.71875 -4.7094,5.1838 -9.6452,10.1471 -14.4375,15.25 -0.6484,0.6807 -1.2909,1.41065 -1.9375,2.09375 0.3706,0.3904 0.7547,0.76595 1.125,1.15625 0.3602,0.3818 0.67265,0.7418 1.03125,1.125 0.85,-0.9671 1.74195,-1.94075 2.59375,-2.90625 4.6935,-5.2041 9.49805,-10.28755 14.34375,-15.34375 -0.6915,-0.7101 -1.40215,-1.38375 -2.09375,-2.09375 z m -33.28125,2.8125 c -2.4763,2.5102 -4.9467,4.97315 -7.5,7.40625 -3.3883,3.2095 -6.77285,6.4793 -10.34375,9.5 0.1068,0.1078 0.16865,0.15705 1.28125,1.21875 0.5857,0.5596 1.18675,1.1361 1.78125,1.6875 3.5677,-3.5678 7.11,-7.15985 10.6875,-10.71875 2.1755,-2.1754 4.38405,-4.26565 6.59375,-6.40625 L -342.5,171.5625 c -0.1014,-0.1015 -0.81355,-0.9058 -0.84375,-0.9375 -1.039,-1.11 -0.5215,-0.53345 -1.375,-1.46875 z m 73.84375,0.75 c -2.4506,2.4907 -4.9069,4.9643 -7.3125,7.5 -3.0945,3.2608 -2.56585,2.80915 -5.59375,6.09375 -0.8615,0.9324 -1.7595,1.85275 -2.625,2.78125 -0.4056,0.4271 -0.7134,0.78865 -1.0625,1.15625 0.68111,0.68101 1.35005,1.3812 2.03125,2.0625 2.4984,-2.5352 5.7375,-6.05915 8.5,-9.09375 2.6911,-2.9858 5.20555,-5.7251 7.84375,-8.75 -0.5951,-0.5949 -1.19385,-1.1473 -1.78125,-1.75 z m -36.625,0.1875 c -5.6074,5.6935 -11.3755,11.2684 -17.375,16.5625 -0.2568,0.2229 -0.4929,0.4018 -0.75,0.625 0.7053,0.7593 1.4218,1.5511 2.125,2.3125 0.508,-0.4742 1.02525,-0.92935 1.53125,-1.40625 5.5436,-5.2877 11.0659,-10.63485 16.625,-15.90625 -0.7216,-0.7418 -1.43535,-1.4449 -2.15625,-2.1875 z m -74.4375,0.6875 c -0.166,0.14764 -0.3082,0.3578 -0.4375,0.46875 -4.4318,4.08799 -3.4559,3.12054 -7.9375,7.46875 -2.63315,2.60341 -5.1868,5.31977 -7.6875,8.0625 l 0,0.75 c 0.41608,0.44848 0.8326,0.89646 1.25,1.34375 1.7767,-1.77668 3.5556,-3.54955 5.375,-5.28125 5.1072,-4.88081 6.68935,-5.85368 11.21875,-10.9375 -0.6155,-0.6523 -1.17325,-1.22602 -1.78125,-1.875 z M -248,172.3125 c -0.46033,0.44985 -0.92243,0.89869 -1.375,1.34375 -2.4384,2.37574 -4.85795,4.7019 -7.34375,7.03125 0.7197,0.73242 1.43955,1.51489 2.15625,2.25 l 0.96875,0.96875 c 1.84815,-1.94448 3.72237,-3.86063 5.59375,-5.78125 l 0,-5.8125 z m -92.9375,0.15625 c -0.8447,0.7909 -1.68535,1.5855 -2.53125,2.375 0.473,0.5102 0.9627,1.02265 1.4375,1.53125 5.2801,5.5654 10.5506,11.13595 15.8125,16.71875 0.827,-0.807 1.6738,-1.66085 2.5,-2.46875 -5.7051,-5.6096 -11.3008,-11.3289 -16.5625,-17.375 -0.2218,-0.2588 -0.43445,-0.52255 -0.65625,-0.78125 z m 37.15625,1.15625 c -0.7075,0.7077 -1.4086,1.39425 -2.125,2.09375 0.5136,0.486 1.02045,0.9482 1.53125,1.4375 4.9994,4.7071 9.89355,9.5586 14.96875,14.1875 0.017,0.017 0.2468,0.23095 0.4375,0.40625 l 1.71875,-1.8125 c -2.4984,-2.8337 -13.69955,-13.1988 -16.53125,-16.3125 z m -73.15625,0.125 c -0.6527,0.6156 -1.227,1.2046 -1.875,1.8125 0.1475,0.1662 0.29005,0.3136 0.40625,0.4375 4.0882,4.4321 3.1522,3.4561 7.5,7.9375 2.7223,2.7531 5.5652,5.3927 8.4375,8 0.571,-0.534 1.1165,-1.0284 1.6875,-1.5625 -1.7767,-1.7765 -3.54385,-3.59195 -5.28125,-5.40625 -4.8806,-5.1068 -5.7914,-6.68875 -10.875,-11.21875 z m 110.03125,0.125 -0.40625,0.40625 c -0.6108,0.6106 -1.2105,1.22465 -1.8125,1.84375 l 0.0312,0 c 5.0719,5.7937 10.2726,11.44895 15.4375,17.15625 0.6123,-0.5921 1.23835,-1.2133 1.84375,-1.8125 l 0.40625,-0.40625 c -1.45,-1.5671 -1.5242,-1.5898 -4.6875,-4.9375 -3.7018,-3.9878 -7.2742,-8.1107 -10.8125,-12.25 z m -40.5,2.03125 -0.9375,0.9375 c -0.6838,0.7024 -1.34355,1.39535 -2.03125,2.09375 2.4826,2.3333 4.8744,4.6857 7.3125,7.0625 1.1027,1.0858 2.24735,2.2207 3.34375,3.3125 2.4471,2.4301 3.97265,3.9026 6.28125,6.4375 0.2527,0.279 0.53155,0.56165 0.78125,0.84375 0.9447,-0.903 1.8795,-1.80285 2.8125,-2.71875 -0.5507,-0.5997 -1.1283,-1.18985 -1.6875,-1.78125 -2.2556,-2.3819 -4.02125,-4.06835 -6.34375,-6.40625 -1.0988,-1.0987 -2.159,-2.23755 -3.25,-3.34375 -2.0939,-2.1479 -4.21065,-4.2659 -6.28125,-6.4375 z m -73.03125,0.0625 c -1.3535,1.3535 -2.61405,2.6679 -3.84375,3.9375 2.0146,1.8851 3.9574,3.79975 5.9375,5.71875 3.6703,3.7551 7.5773,7.3093 11.125,11.1875 0.8758,-1.3737 2.6325,-2.7183 3.6875,-3.75 -3.8914,-4.1445 -8.10525,-7.9528 -12.03125,-12.0625 -1.6223,-1.6731 -3.2716,-3.33885 -4.875,-5.03125 z m 110.125,1.46875 c -0.439,0.4393 -0.84185,0.84195 -1.28125,1.28125 4.6371,4.7571 9.3135,9.4816 13.9375,14.25 0.8055,0.8347 1.37185,1.33535 2.15625,2.09375 l 1.53125,-1.75 c -0.5192,-0.6967 -4.8926,-4.4749 -6.4375,-6 -3.2954,-3.3138 -6.60275,-6.5703 -9.90625,-9.875 z m -74.28125,0.0312 c -0.5261,0.5265 -1.0363,1.0363 -1.5625,1.5625 4.9526,5.3762 10.556,11.19075 16.75,17.28125 0.6134,-0.6135 1.23025,-1.2618 1.84375,-1.875 -0.1701,-0.1932 -0.3286,-0.3725 -0.5,-0.5625 -2.3372,-2.6071 -3.90875,-4.11305 -6.40625,-6.59375 -1.1168,-1.1168 -2.2504,-2.23465 -3.375,-3.34375 -2.2337,-2.1707 -4.4803,-4.33385 -6.75,-6.46875 z M -248,180.3125 c -0.23565,0.25268 -0.48398,0.49694 -0.71875,0.75 -1.0501,1.11617 -2.05445,2.18551 -3.09375,3.3125 l 1.5625,1.59375 c 0.2699,-0.28829 0.51045,-0.61719 0.78125,-0.90625 0.48841,-0.51214 0.98006,-1.01969 1.46875,-1.53125 l 0,-3.21875 z m -100.75,0.0937 -2.71875,2.6875 c 5.1377,3.9739 5.6636,4.8407 10.625,9 2.9052,2.4578 5.58025,4.61905 8.46875,7.09375 0.6971,-0.4963 1.1848,-1.1678 1.9375,-1.9375 -3.0519,-2.6649 -5.77725,-5.1621 -8.78125,-7.875 -3.2308,-2.9463 -6.99165,-6.42885 -9.53125,-8.96875 z m -36.15625,0.375 c -0.1181,0.1366 -0.22115,0.27445 -0.34375,0.40625 -0.5669,0.6191 -1.1256,1.22065 -1.6875,1.84375 5.4863,5.6666 11.1148,11.20075 16.6875,16.78125 0.5758,-0.5957 1.1815,-1.2103 1.75,-1.8125 0.1273,-0.1273 0.21815,-0.27755 0.34375,-0.40625 -1.5624,-1.5316 -1.62875,-1.57165 -5.03125,-4.84375 -3.9887,-3.8963 -7.88445,-7.91955 -11.71875,-11.96875 z m 73.125,0 -2.25,2.25 c 4.9538,3.9728 5.5067,4.8083 10.3125,8.9375 2.8155,2.4388 5.35495,4.57835 8.15625,7.03125 0.6018,-0.4051 1.02235,-0.9742 1.65625,-1.625 -2.9638,-2.6372 -5.60785,-5.10385 -8.53125,-7.78125 -3.1455,-2.9058 -6.85595,-6.3241 -9.34375,-8.8125 z m 37.84375,0.15625 c -1.0608,1.03 -2.09315,2.06615 -3.15625,3.09375 3.1309,2.7209 6.2021,5.5071 9.3125,8.25 2.6885,2.3952 5.4579,4.68015 8.25,6.96875 0.8791,-0.8788 1.7461,-1.7461 2.625,-2.625 -2.9942,-2.4777 -5.87875,-5.01955 -8.71875,-7.65625 -4.4228,-4.1898 -3.49605,-3.24915 -7.65625,-7.40625 -0.1718,-0.1717 -0.46185,-0.4301 -0.65625,-0.625 z m -115.21875,2.25 -2.46875,3.8125 0.0312,0 c 0.4468,0.3065 0.881,0.58465 1.3125,0.90625 1.816,1.352 2.85575,2.29475 4.59375,3.84375 3.3435,2.9803 6.59525,6.08725 9.78125,9.21875 0.7593,0.7439 1.4893,1.53915 2.25,2.28125 0.685,-0.7032 1.09395,-1.8609 1.78125,-2.5625 -0.9042,-0.8854 -1.4959,-1.37145 -2.375,-2.28125 -4.9459,-5.097 -9.95295,-10.12865 -14.90625,-15.21875 z m 74.46875,0.59375 -0.28125,0.25 c -0.5559,0.5728 -1.10425,1.1734 -1.65625,1.75 1.5608,1.5945 3.16005,3.18565 4.71875,4.78125 4.0224,4.2313 8.05545,8.4194 11.96875,12.75 0.1993,-0.823 1.34715,-1.3958 1.90625,-1.875 -4.326,-4.6269 -8.71485,-9.1754 -13.03125,-13.8125 -1.2075,-1.2767 -2.4339,-2.55005 -3.625,-3.84375 z m -36.78125,0.96875 -1.46875,1.53125 -0.0312,0 c 3.647,4.1967 7.29735,8.3154 11.09375,12.375 3.313,3.4886 3.38875,3.59375 4.90625,5.21875 0.5902,-0.5903 1.2134,-1.19925 1.8125,-1.78125 -3.9062,-4.388 -7.9704,-8.6642 -12,-12.9375 -1.439,-1.4746 -2.8699,-2.93435 -4.3125,-4.40625 z m 73.1875,0.25 c -0.388,0.3541 -0.76575,0.7104 -1.15625,1.0625 -0.3653,0.3313 -0.7599,0.6687 -1.125,1 0.513,0.4838 0.99495,0.9336 1.59375,1.5 0.8845,0.8182 1.76765,1.65475 2.65625,2.46875 3.1276,2.8624 2.7114,2.3832 5.8125,5.3125 2.4343,2.3018 4.82895,4.62255 7.21875,6.96875 0.7016,-0.6553 1.4238,-1.31345 2.125,-1.96875 -5.4212,-5.202 -10.89015,-10.3943 -16.34375,-15.5625 -0.2633,-0.2632 -0.52015,-0.51545 -0.78125,-0.78125 z M -248,185.875 c -0.38495,0.3758 -0.77626,0.74503 -1.15625,1.125 l 1.15625,1.15625 0,-2.28125 z m -34.1875,1.875 -2.5625,3.90625 c 0.4489,0.3042 0.91045,0.5552 1.34375,0.875 1.8221,1.3457 2.91555,2.3287 4.65625,3.875 3.3488,2.975 6.5631,6.0569 9.75,9.1875 0.7607,0.7424 1.4895,1.5079 2.25,2.25 0.705,-0.7236 1.13655,-1.8411 1.84375,-2.5625 -0.904,-0.8857 -1.4961,-1.4028 -2.375,-2.3125 -4.9446,-5.0986 -9.95475,-10.12705 -14.90625,-15.21875 z m -36.34375,0.0312 c -1.108,1.1078 -2.15395,2.17495 -3.15625,3.21875 2.0027,1.8964 3.9627,3.8256 5.9375,5.75 3.6781,3.7474 7.51565,7.3401 11.09375,11.1875 0.672,-1.1692 2.16575,-2.2201 3.03125,-3.0625 -3.9139,-4.1211 -8.1194,-7.9699 -12.0625,-12.0625 -1.6277,-1.6677 -3.23185,-3.34735 -4.84375,-5.03125 z m -37.5625,0.0937 c -0.4354,0.414 -0.8757,0.8378 -1.3125,1.25 -0.4231,0.4016 -0.8277,0.81645 -1.25,1.21875 0.9755,0.8447 1.9642,1.68485 2.9375,2.53125 5.2402,4.6697 10.33175,9.44155 15.40625,14.28125 0.7911,-0.7743 1.5839,-1.50715 2.375,-2.28125 -0.1606,-0.1437 -0.7166,-0.6585 -0.75,-0.6875 -5.2175,-4.688 -10.21675,-9.5942 -15.34375,-14.375 -0.6832,-0.6477 -1.3753,-1.2934 -2.0625,-1.9375 z m -36.6875,0.46875 c -0.8776,0.7544 -1.77895,1.52635 -2.65625,2.28125 0.9684,0.9487 1.93655,1.9269 2.90625,2.875 4.5389,4.3559 9.0663,8.7309 13.5,13.1875 0.5312,0.5498 0.59575,0.627 0.78125,0.8125 0.9888,-0.8777 2.0123,-1.77765 3,-2.65625 -0.3784,-0.3354 -0.57935,-0.46695 -1.78125,-1.53125 -4.6522,-4.1965 -9.2576,-8.43245 -13.6875,-12.84375 -0.6965,-0.6974 -1.3679,-1.4244 -2.0625,-2.125 z m -5.09375,2.78125 c -0.0403,0.0431 -0.0846,0.082 -0.125,0.125 l 0,6.25 c 1.09995,-1.0653 2.20015,-2.13006 3.3125,-3.1875 l -1,-1 c -0.7443,-0.72591 -1.4442,-1.46053 -2.1875,-2.1875 z m 75.03125,0.15625 c -2.6408,3.0771 -5.3496,6.14655 -8.125,9.09375 -4.4015,4.5984 -3.37455,3.5907 -7.71875,7.9375 -0.1791,0.1793 -0.4842,0.45315 -0.6875,0.65625 0.8669,0.8994 1.7609,1.7865 2.625,2.6875 2.8845,-3.2299 5.785,-6.38035 8.6875,-9.59375 2.5323,-2.7802 4.9956,-5.66365 7.4375,-8.53125 -0.7426,-0.7423 -1.47855,-1.5051 -2.21875,-2.25 z m 37.09375,0.3125 c -5.6333,5.7945 -11.09905,11.2819 -16.90625,16.5625 l 2.1875,2.125 c 3.4043,-2.8995 6.60175,-5.9967 9.84375,-9.0625 2.472,-2.352 4.94535,-4.73015 7.34375,-7.15625 -0.8192,-0.8191 -1.65795,-1.64095 -2.46875,-2.46875 z m -74.59375,0.375 c -5.6331,5.7943 -11.03675,11.282 -16.84375,16.5625 l 2.125,2.15625 c 3.4043,-2.8995 6.66445,-5.9966 9.90625,-9.0625 2.472,-2.3518 4.88295,-4.7616 7.28125,-7.1875 -0.8192,-0.8191 -1.65895,-1.64045 -2.46875,-2.46875 z M -248,193.53125 c -1.00833,0.9463 -1.34089,1.27742 -4.15625,3.9375 -3.9876,3.7017 -8.07945,7.27421 -12.21875,10.8125 l 0.40625,0.40625 c 0.6106,0.61073 1.1936,1.24172 1.8125,1.84375 l 0.0312,-0.0312 c 4.77613,-4.18125 9.43775,-8.45474 14.125,-12.71875 l 0,-4.25 z m -70.53125,1.6875 c -0.3447,0.3831 -0.5281,0.56785 -1.625,1.78125 -4.3123,4.7082 -8.6267,9.3606 -13.125,13.875 -0.711,0.7099 -1.4749,1.4152 -2.1875,2.125 0.6462,0.7723 1.32205,1.50975 1.96875,2.28125 0.9679,-0.9864 1.93725,-1.9516 2.90625,-2.9375 4.454,-4.6137 8.92735,-9.1657 13.46875,-13.6875 0.5601,-0.5417 0.65425,-0.65455 0.84375,-0.84375 -0.7549,-0.8674 -1.4947,-1.72705 -2.25,-2.59375 z m 37.0625,0.65625 c -5.3734,5.0528 -10.73625,10.14955 -16.09375,15.21875 -0.3007,0.279 -0.5755,0.56425 -0.875,0.84375 0.59713,0.57862 1.17456,1.10975 1.84375,1.75 1.1456,-1.0438 2.27415,-2.0678 3.40625,-3.125 4.5868,-4.2023 9.0565,-8.5292 13.625,-12.75 -0.2127,-0.2128 -0.2918,-0.30445 -0.5,-0.53125 -0.4723,-0.4724 -0.94295,-0.92455 -1.40625,-1.40625 z m -112.25,0.0937 c -1.42772,1.39601 -2.85562,2.76538 -4.28125,4.15625 l 0,3.8125 c 0.84342,-0.79172 1.68417,-1.58992 2.53125,-2.375 1.2802,-1.20675 2.54555,-2.43593 3.84375,-3.625 l -0.28125,-0.25 c -0.6078,-0.58945 -1.2005,-1.13362 -1.8125,-1.71875 z m 37.6875,0.28125 c -5.3736,5.0528 -10.73625,10.1183 -16.09375,15.1875 -0.3007,0.2791 -0.6366,0.56585 -0.9375,0.84375 0.6027,0.5841 1.23085,1.1663 1.90625,1.8125 1.1455,-1.0439 2.27415,-2.0677 3.40625,-3.125 4.5864,-4.2022 9.08815,-8.5295 13.65625,-12.75 -0.2129,-0.2128 -0.32335,-0.30475 -0.53125,-0.53125 -0.4724,-0.4723 -0.94225,-0.9565 -1.40625,-1.4375 z M -248,198.59375 c -1.12467,1.24256 -2.24079,2.48163 -2.9375,3.1875 -3.3139,3.29547 -6.6334,6.63333 -9.9375,9.9375 0.4395,0.43911 0.84185,0.84185 1.28125,1.28125 3.86169,-3.76415 7.72653,-7.54563 11.59375,-11.3125 l 0,-3.09375 z m -66.5625,0.5625 c -5.4572,5.6426 -10.8835,11.29865 -16.3125,16.96875 -0.2753,0.2751 -0.56685,0.5388 -0.84375,0.8125 0.2961,0.3313 0.5791,0.6686 0.875,1 0.2766,0.3119 0.56815,0.625 0.84375,0.9375 0.5094,-0.5323 1.0324,-1.0627 1.625,-1.6875 0.8627,-0.9167 1.7043,-1.8291 2.5625,-2.75 3.0176,-3.2416 2.51535,-2.74485 5.59375,-5.96875 2.4164,-2.532 4.8569,-5.03775 7.3125,-7.53125 -0.5501,-0.5963 -1.10675,-1.18405 -1.65625,-1.78125 z m -75.625,0.40625 c -2.59524,2.59524 -5.20345,5.19104 -7.8125,7.78125 l 0,4.5 c 0.12697,-0.122 0.24789,-0.25333 0.375,-0.375 3.3209,-3.16621 6.5807,-6.37481 10.0625,-9.375 -0.089,-0.089 -0.14605,-0.16454 -1.09375,-1.0625 -0.5169,-0.49144 -1.00755,-0.9836 -1.53125,-1.46875 z m 112.40625,0.0312 c -4.7334,4.3604 -9.3169,8.8399 -14.0625,13.1875 -1.2992,1.21337 -2.61733,2.4326 -3.9375,3.625 l 0.3125,0.3125 c 0.7082,0.6915 1.4142,1.40445 2.125,2.09375 1.6222,-1.5822 3.1917,-3.19895 4.8125,-4.78125 4.321,-4.0621 8.6793,-8.10345 13.125,-12.03125 -0.9506,-0.317 -1.7722,-1.72165 -2.375,-2.40625 z M -352.34375,200 c -4.7332,4.3601 -9.34865,8.8393 -14.09375,13.1875 -1.29925,1.21323 -2.61718,2.401 -3.9375,3.59375 l 0.3125,0.34375 c 0.7091,0.6908 1.4118,1.34435 2.125,2.03125 1.6231,-1.5817 3.2525,-3.13795 4.875,-4.71875 4.3205,-4.0621 8.617,-8.1346 13.0625,-12.0625 -0.9504,-0.3168 -1.74085,-1.6904 -2.34375,-2.375 z m 41.5,2.875 c -0.1433,0.1603 -0.62655,0.68585 -0.65625,0.71875 -4.7094,5.1837 -9.6452,10.17845 -14.4375,15.28125 -0.6484,0.6806 -1.25915,1.38 -1.90625,2.0625 0.3696,0.3911 0.7555,0.76505 1.125,1.15625 0.36,0.3818 0.7017,0.7443 1.0625,1.125 0.8501,-0.9672 1.67945,-1.94065 2.53125,-2.90625 4.6933,-5.204 9.5292,-10.28745 14.375,-15.34375 -0.6916,-0.71 -1.40145,-1.38445 -2.09375,-2.09375 z m 37.21875,0.875 c -6.2082,6.327 -12.1482,12.01455 -17.625,17.03125 l 1.125,1.9375 c 6.1383,-5.5383 11.8182,-11.2723 17.75,-17.375 -0.5208,-0.5024 -0.7317,-1.08855 -1.25,-1.59375 z m -112.5625,0.125 c -3.97704,3.56531 -7.89445,7.18922 -11.8125,10.8125 l 0,3.5 c 0.52001,-0.49652 0.42962,-0.40723 1.3125,-1.25 4.0652,-3.82396 8.21465,-7.53401 12.40625,-11.21875 l -0.34375,-0.3125 c -0.5248,-0.50643 -1.0389,-1.02447 -1.5625,-1.53125 z m 38,0.25 c -6.209,6.326 -12.147,12.0465 -17.625,17.0625 l 1.09375,1.9375 c 6.138,-5.5388 11.84955,-11.2723 17.78125,-17.375 -0.5209,-0.5024 -0.7319,-1.1197 -1.25,-1.625 z M -248,205.59375 c -0.43133,0.47439 -0.8434,0.96587 -1.28125,1.4375 -4.1901,4.42281 -3.2804,3.49606 -7.4375,7.65625 -0.1719,0.17169 -0.4302,0.43075 -0.625,0.625 1.0298,1.06094 2.06605,2.1245 3.09375,3.1875 2.06727,-2.37866 4.16377,-4.7319 6.25,-7.09375 l 0,-5.8125 z m -135.84375,0.3125 c -1.895,2.00811 -3.8243,3.99203 -5.75,5.96875 -2.82461,2.77032 -5.57642,5.63661 -8.40625,8.40625 l 0,5.4375 c 0.13048,0.14677 0.28321,0.34298 0.40625,0.46875 4.1307,-3.91136 7.99315,-8.12031 12.09375,-12.0625 1.6702,-1.62783 3.3752,-3.264 5.0625,-4.875 -1.1747,-1.175 -2.30115,-2.27969 -3.40625,-3.34375 z m 76.9375,0.71875 c -5.6072,5.6936 -11.3756,11.2681 -17.375,16.5625 -0.2571,0.2229 -0.4931,0.402 -0.75,0.625 0.7046,0.7601 1.4209,1.5519 2.125,2.3125 0.508,-0.4743 1.02545,-0.92955 1.53125,-1.40625 5.5436,-5.288 11.03465,-10.63425 16.59375,-15.90625 -0.7208,-0.7423 -1.4032,-1.4458 -2.125,-2.1875 z m 36.84375,0.65625 c -0.1103,0.093 -0.2065,0.18455 -0.3125,0.28125 -2.6008,2.3184 -4.12595,3.92055 -6.59375,6.40625 -1.1112,1.1113 -2.24035,2.2562 -3.34375,3.375 -2.163,2.2307 -4.34195,4.38965 -6.46875,6.65625 l 1.65625,1.6875 c 5.297,-4.8588 11.0197,-10.3583 17,-16.4375 -0.648,-0.648 -1.298,-1.31245 -1.9375,-1.96875 z m -74.59375,0.40625 c -0.1108,0.092 -0.2069,0.18485 -0.3125,0.28125 -2.6009,2.3191 -4.12595,3.8894 -6.59375,6.375 -1.1112,1.1112 -2.2087,2.22465 -3.3125,3.34375 -2.1628,2.2306 -4.34255,4.45145 -6.46875,6.71875 l 1.65625,1.65625 c 5.2966,-4.8585 10.98865,-10.32725 16.96875,-16.40625 -0.6478,-0.6481 -1.298,-1.31235 -1.9375,-1.96875 z m 4.46875,2.28125 c -0.7079,0.7078 -1.4088,1.4255 -2.125,2.125 0.5138,0.4861 1.0517,0.97955 1.5625,1.46875 4.9991,4.7071 9.8618,9.52745 14.9375,14.15625 0.018,0.017 0.2453,0.2012 0.4375,0.375 l 1.75,-1.78125 c -2.4983,-2.834 -13.7312,-13.23065 -16.5625,-16.34375 z m 36.4375,0.0937 c -1.1666,1.1673 -2.28625,2.3384 -3.34375,3.4375 2.0079,1.8954 3.92955,3.79325 5.90625,5.71875 3.6797,3.7521 7.5515,7.36025 11.125,11.21875 0.7275,-1.2252 2.30175,-2.3561 3.21875,-3.25 -3.9115,-4.1309 -8.1213,-7.99225 -12.0625,-12.09375 -1.6285,-1.6699 -3.23175,-3.34435 -4.84375,-5.03125 z m 37.15625,0.46875 -2.96875,3.34375 c 5.4154,4.2677 5.43415,5.18655 10.40625,9.90625 2.4385,2.3306 4.74205,4.2708 7.09375,6.6875 0.8029,-0.8199 1.6965,-1.21175 2.5,-2.03125 -2.4991,-2.6069 -5.01795,-5.18795 -7.53125,-7.78125 -4.8192,-5.0749 -5.1219,-4.6166 -9.5,-10.125 z m -112.125,0.71875 c -0.6198,0.5719 -1.28575,1.14715 -1.90625,1.71875 5.6709,5.4785 11.39405,10.926 17.09375,16.375 l 0.84375,0.84375 c 0.3438,-0.3083 0.68725,-0.59765 1.03125,-0.90625 0.3235,-0.2881 0.64355,-0.61955 0.96875,-0.90625 -0.5352,-0.5107 -1.0614,-0.99685 -1.6875,-1.59375 -0.9226,-0.8641 -1.85335,-1.73455 -2.78125,-2.59375 -3.26,-3.0266 -2.7595,-2.50465 -6,-5.59375 -2.5447,-2.4261 -5.057,-4.87825 -7.5625,-7.34375 z m 34.90625,1.0625 -0.875,0.875 c -0.6855,0.701 -1.34495,1.4248 -2.03125,2.125 2.4826,2.3332 4.875,4.71595 7.3125,7.09375 1.1032,1.0848 2.2154,2.159 3.3125,3.25 2.4479,2.4295 3.97215,3.9652 6.28125,6.5 0.2535,0.2781 0.5007,0.56215 0.75,0.84375 0.9455,-0.9022 1.8798,-1.8342 2.8125,-2.75 -0.5511,-0.5988 -1.09615,-1.2221 -1.65625,-1.8125 -2.2547,-2.3827 -3.9883,-4.0385 -6.3125,-6.375 -1.0985,-1.0986 -2.2231,-2.2044 -3.3125,-3.3125 -2.0946,-2.1469 -4.21005,-4.2666 -6.28125,-6.4375 z m 36.46875,1.59375 -0.3125,0.3125 c -0.5067,0.5237 -1.02465,1.039 -1.53125,1.5625 5.2691,5.8782 10.68295,11.6318 16.03125,17.4375 0.5181,-0.4983 1.0497,-0.9965 1.5625,-1.5 l 0.3125,-0.34375 c -1.4982,-1.5969 -1.5514,-1.61195 -4.8125,-5.03125 -3.8235,-4.0647 -7.5651,-8.246 -11.25,-12.4375 z m 59.34375,0.25 c -1.49972,1.58364 -3.00026,3.16746 -4.5,4.75 -0.2631,0.26325 -0.5471,0.4888 -0.8125,0.75 0.3542,0.38821 0.74135,0.79697 1.09375,1.1875 0.3313,0.36522 0.6688,0.72853 1,1.09375 0.4836,-0.51322 0.9338,-0.99497 1.5,-1.59375 0.56865,-0.61491 1.14603,-1.228 1.71875,-1.84375 l 0,-4.34375 z m -133.53125,0.0937 c -0.8998,0.7873 -1.7879,1.5875 -2.6875,2.375 0.3848,0.3462 0.5283,0.5261 1.75,1.625 4.7364,4.3248 9.4022,8.6694 13.9375,13.1875 0.713,0.7144 1.4106,1.4107 2.125,2.125 0.8007,-0.6742 1.60595,-1.3251 2.40625,-2 -0.9908,-0.9724 -1.97765,-1.9648 -2.96875,-2.9375 -4.6366,-4.4719 -9.2085,-8.96915 -13.75,-13.53125 -0.5449,-0.5619 -0.6232,-0.65305 -0.8125,-0.84375 z m 110.28125,1.28125 c -0.1458,0.048 -0.33645,0.15795 -0.53125,0.34375 -0.5835,0.559 -1.31825,1.63075 -1.84375,2.15625 0.6022,0.6022 1.2113,1.2114 1.8125,1.8125 4.4745,4.4561 9.1135,8.6988 13.8125,12.9375 1.1473,1.018 1.31265,1.1972 1.65625,1.5 0.7182,-0.7183 1.43635,-1.4082 2.15625,-2.125 -0.5776,-0.5775 -1.13155,-1.1814 -1.71875,-1.75 -3.2972,-3.2432 -6.667,-6.4731 -10.125,-9.5625 -1.797,-1.606 -3.34545,-3.9061 -5.21875,-5.3125 z m -39.65625,1.5625 c -0.094,0.094 -0.16235,0.2052 -1.09375,1.1875 -0.4919,0.5166 -1.0148,1.00775 -1.5,1.53125 3.5159,3.5159 7.0504,7.07375 10.5625,10.59375 2.1441,2.144 4.23035,4.29525 6.34375,6.46875 l 0.25,-0.25 c 0.09,-0.09 0.7843,-0.7234 0.8125,-0.75 0.9805,-0.9113 0.4874,-0.46905 1.3125,-1.21875 -2.4715,-2.4421 -4.9096,-4.89535 -7.3125,-7.40625 -3.1714,-3.3296 -6.3693,-6.66625 -9.375,-10.15625 z m -37.28125,0.0312 -2.25,2.28125 0,0.0312 c 4.954,3.9724 5.5067,4.8081 10.3125,8.9375 2.8155,2.4385 5.35475,4.57845 8.15625,7.03125 0.6016,-0.405 1.02355,-1.00505 1.65625,-1.65625 -2.9637,-2.6372 -5.60765,-5.0725 -8.53125,-7.75 -3.1458,-2.9058 -6.85555,-6.387 -9.34375,-8.875 z m -37.15625,0.625 c -0.656,0.6561 -1.31285,1.31255 -1.96875,1.96875 2.2973,2.3282 4.4967,4.2793 6.875,6.5625 4.9088,4.6883 5.3373,5.14205 10.1875,9.78125 l 0.28125,-0.3125 c 0.3365,-0.3365 0.85415,-0.85405 1.15625,-1.15625 -5.7387,-5.909 -11.53775,-11.90435 -16.53125,-16.84375 z m 111.0625,1.15625 c -0.6127,0.6128 -1.41855,1.5124 -2.03125,2.125 0.602,0.602 1.1486,1.2109 1.75,1.8125 4.4752,4.4551 9.1759,8.72995 13.875,12.96875 1.1473,1.0179 1.282,1.1967 1.625,1.5 0.7184,-0.7183 1.4677,-1.43945 2.1875,-2.15625 -0.5861,-0.5694 -1.19865,-1.14535 -1.78125,-1.71875 -3.2975,-3.2435 -6.6045,-6.44195 -10.0625,-9.53125 -2.1762,-1.8879 -4.6739,-4.1114 -5.5625,-5 z m -76.78125,1.25 -0.25,0.28125 c -0.5551,0.5738 -1.10395,1.14205 -1.65625,1.71875 1.561,1.5947 3.1281,3.1553 4.6875,4.75 4.0226,4.2311 8.0242,8.4817 11.9375,12.8125 0.1993,-0.8229 1.379,-1.42625 1.9375,-1.90625 -4.3261,-4.6268 -8.71495,-9.1756 -13.03125,-13.8125 -1.2075,-1.2768 -2.4355,-2.54865 -3.625,-3.84375 z M -248,221.09375 c -0.84312,0.82393 -1.68525,1.64605 -2.53125,2.46875 L -248,225.25 l 0,-4.15625 z m -67.0625,0.125 -0.28125,0.28125 c -0.5896,0.608 -1.19585,1.23225 -1.78125,1.84375 1.5613,1.5969 3.15985,3.1525 4.71875,4.75 4.0198,4.2412 8.00185,8.49665 11.90625,12.84375 0.2297,-0.8541 1.472,-1.4898 2.0625,-2 -4.3212,-4.6402 -8.72065,-9.2242 -13.03125,-13.875 -1.2057,-1.281 -2.40405,-2.54625 -3.59375,-3.84375 z m 37.09375,0.0625 -2.96875,3.34375 c 5.4153,4.2678 5.43385,5.18645 10.40625,9.90625 2.439,2.3298 4.74185,4.23925 7.09375,6.65625 0.8023,-0.8206 1.6966,-1.1803 2.5,-2 -2.4983,-2.6076 -4.9865,-5.2188 -7.5,-7.8125 -4.8194,-5.0747 -5.15385,-4.58555 -9.53125,-10.09375 z m -111.21875,1.125 c -0.7724,0.7724 -1.50895,1.5401 -2.28125,2.3125 3.0992,2.6448 6.13005,5.34 9.09375,8.125 4.6222,4.4175 3.66495,3.41795 8.03125,7.78125 0.1801,0.1802 0.4207,0.45195 0.625,0.65625 0.9346,-0.9024 1.877,-1.786 2.8125,-2.6875 -3.2506,-2.8907 -6.4545,-5.80865 -9.6875,-8.71875 -2.797,-2.5391 -5.70585,-5.02315 -8.59375,-7.46875 z m 34.28125,1.75 c -1.1077,1.1078 -2.15275,2.17675 -3.15625,3.21875 2.0029,1.8965 3.9629,3.85675 5.9375,5.78125 3.678,3.7472 7.51595,7.34 11.09375,11.1875 0.6719,-1.1694 2.1344,-2.22 3,-3.0625 -3.9141,-4.1212 -8.0582,-7.99955 -12,-12.09375 -1.6277,-1.6677 -3.2631,-3.34745 -4.875,-5.03125 z m 36.125,0.15625 -0.9375,0.96875 c -0.7258,0.744 -1.458,1.47845 -2.1875,2.21875 2.4895,2.3312 4.9332,4.7471 7.375,7.125 1.1043,1.0857 2.2143,2.158 3.3125,3.25 2.4499,2.4315 3.97695,3.92475 6.28125,6.46875 0.2529,0.2788 0.501,0.56075 0.75,0.84375 1.0012,-0.9581 1.98035,-1.9035 2.96875,-2.875 -0.5495,-0.6021 -1.09615,-1.2208 -1.65625,-1.8125 -2.2552,-2.3863 -3.9877,-4.06615 -6.3125,-6.40625 -1.0995,-1.0995 -2.2191,-2.23795 -3.3125,-3.34375 -2.0941,-2.151 -4.21275,-4.26 -6.28125,-6.4375 z m 37.34375,1.75 c -0.7183,0.7185 -1.43775,1.4064 -2.15625,2.125 2.8773,3.3767 5.9587,6.56475 9,9.78125 2.4123,2.5355 4.8843,5.0433 7.375,7.5 0.8156,-0.8155 1.65155,-1.59195 2.46875,-2.40625 -5.841,-5.6782 -11.3713,-11.1546 -16.6875,-17 z m -112.6875,0.625 c -0.6012,0.6197 -1.3348,1.35055 -1.9375,1.96875 2.2159,2.0955 4.3001,4.0124 6.4375,6.1875 3.2811,2.9608 6.20415,5.86815 11.53125,11.15625 l 1.875,-2.21875 c -2.0601,-1.6395 -6.6669,-6.2094 -12,-11.375 -2.0223,-1.956 -3.84135,-3.80555 -5.90625,-5.71875 z m -3.875,1.78125 0,5.09375 c 0.14613,-0.15626 0.29154,-0.31221 0.4375,-0.46875 0.648,-0.68334 1.2923,-1.37632 1.9375,-2.0625 -0.4142,-0.43537 -0.838,-0.90626 -1.25,-1.34375 -0.3812,-0.40134 -0.74696,-0.81454 -1.125,-1.21875 z m 38.96875,0.0937 c -2.4956,2.5341 -5.7442,6.00415 -8.5,9.03125 -2.6912,2.9857 -5.20585,5.69425 -7.84375,8.71875 0.5951,0.5951 1.19465,1.209 1.78125,1.8125 2.4508,-2.4909 4.9064,-5.0272 7.3125,-7.5625 3.0943,-3.2605 2.56575,-2.74685 5.59375,-6.03125 0.8608,-0.9332 1.7598,-1.8832 2.625,-2.8125 0.4056,-0.4271 0.74465,-0.78865 1.09375,-1.15625 -0.6735,-0.6728 -1.3893,-1.3269 -2.0625,-2 z m 35.96875,0.0625 c -0.4979,0.4978 -1.0113,0.96165 -1.5,1.46875 -3.2139,3.2602 -6.38465,6.5417 -9.46875,9.9375 -1.6027,1.7658 -2.60695,2.89695 -4.03125,4.71875 -0.2577,0.3285 -0.53805,0.6586 -0.78125,1 l 1.59375,1.5625 c 0.6089,-0.6089 1.2046,-1.23565 1.8125,-1.84375 4.4104,-4.4287 8.67835,-8.97555 12.90625,-13.59375 0.8746,-0.97 1.03115,-1.13155 1.28125,-1.40625 -0.6133,-0.6132 -1.2078,-1.22185 -1.8125,-1.84375 z m 37.625,0.125 c -2.0735,2.2028 -3.99675,4.22575 -6.15625,6.34375 -5.4034,5.219 -5.2452,6.67325 -11.0625,11.46875 l 2.40625,2.0625 c 4.6825,-5.7202 6.1348,-6.60845 11.25,-11.90625 1.9368,-2.0092 3.8593,-4.0702 5.75,-6.125 -0.6749,-0.6567 -1.5131,-1.18625 -2.1875,-1.84375 z M -248,229.71875 c -5.40403,5.47607 -10.93797,10.84703 -16.75,15.90625 -0.2587,0.22189 -0.52265,0.43443 -0.78125,0.65625 0.7909,0.84471 1.5856,1.68534 2.375,2.53125 0.51,-0.47319 1.0538,-0.9315 1.5625,-1.40625 4.53342,-4.30119 9.05711,-8.60962 13.59375,-12.90625 l 0,-4.78125 z m -71.3125,2.59375 c -5.3546,5.0778 -10.6595,10.18835 -16,15.28125 -0.2889,0.2706 -0.61795,0.5427 -0.90625,0.8125 l 1.5625,1.5625 c 1.127,-1.0391 2.22745,-2.075 3.34375,-3.125 4.578,-4.2471 9.0594,-8.6153 13.625,-12.875 -0.5474,-0.5473 -1.086,-1.10035 -1.625,-1.65625 z m -74.625,0.375 c -1.35332,1.32451 -2.70965,2.66791 -4.0625,4 l 0,3.59375 c 0.71886,-0.67689 1.43375,-1.35864 2.15625,-2.03125 1.2771,-1.20781 2.55025,-2.43374 3.84375,-3.625 l -0.25,-0.25 c -0.5737,-0.55523 -1.1125,-1.1337 -1.6875,-1.6875 z m 38.71875,0 c -0.1524,0.1523 -0.31595,0.2862 -0.46875,0.4375 -5.3412,5.6119 -10.6902,11.2311 -16.0625,16.8125 0.5803,0.5803 1.1784,1.1613 1.75,1.75 0.139,-0.139 0.2346,-0.21125 0.6875,-0.65625 4.5814,-4.5583 9.081,-9.2119 13.5625,-13.875 0.8241,-0.8426 1.64305,-1.69025 2.46875,-2.53125 l -1.9375,-1.9375 z m 74.1875,0.125 c -3.816,3.5306 -7.3483,7.33685 -11.0625,10.96875 -1.8442,1.9012 -3.6838,3.78955 -5.5,5.71875 0.5536,0.5536 0.83615,0.89875 1.40625,1.46875 5.2019,-4.395 5.26145,-5.908 10.46875,-10.9375 2.0482,-2.0096 3.8602,-4.01725 5.8125,-6.09375 -0.3725,-0.3725 -0.7616,-0.7432 -1.125,-1.125 z m -35.15625,1.40625 c -0.602,0.548 -1.1586,1.0661 -1.75,1.625 -2.3835,2.2526 -4.1,4.053 -6.4375,6.375 -1.0984,1.0984 -2.2071,2.1587 -3.3125,3.25 -2.1472,2.0934 -4.29455,4.21475 -6.46875,6.28125 l 0.96875,0.96875 c 0.7353,0.7167 1.48585,1.4058 2.21875,2.125 2.3294,-2.4859 4.6868,-4.8742 7.0625,-7.3125 1.0845,-1.1029 2.1594,-2.24695 3.25,-3.34375 2.4286,-2.447 3.9604,-3.97815 6.5,-6.28125 0.2785,-0.2523 0.56135,-0.5015 0.84375,-0.75 -0.9465,-0.9895 -1.916,-1.96 -2.875,-2.9375 z m -34.90625,0.84375 c -0.8503,0.9827 -1.711,2.0188 -2.5625,3 -4.6978,5.2835 -9.53375,10.3863 -14.40625,15.5 0.7943,0.8114 1.5814,1.65685 2.375,2.46875 0.1432,-0.1633 0.62705,-0.74745 0.65625,-0.78125 4.7168,-5.2599 9.6879,-10.2702 14.5,-15.4375 0.6524,-0.6879 1.31995,-1.40185 1.96875,-2.09375 -0.425,-0.4465 -0.8869,-0.8667 -1.3125,-1.3125 -0.4139,-0.4354 -0.80565,-0.90735 -1.21875,-1.34375 z m -40.125,0.21875 c -3.13673,3.91142 -4.38231,5.13687 -6.78125,7.8125 l 0,4.03125 c 0.0767,-0.0837 0.14173,-0.1659 0.21875,-0.25 2.9058,-3.1455 6.3245,-6.85537 8.8125,-9.34375 l -2.25,-2.25 z m 113.46875,0.8125 c -2.3458,2.3859 -4.6963,4.7599 -7,7.1875 -3.0557,3.2223 -2.5089,2.7551 -5.5,6 -0.8492,0.9233 -1.73985,1.8318 -2.59375,2.75 -0.4188,0.4418 -0.7638,0.8108 -1.125,1.1875 l 0.6875,0.6875 1.375,1.34375 c 2.4747,-2.5084 5.65875,-5.9812 8.40625,-9 2.5854,-2.8695 4.9734,-5.51555 7.5,-8.40625 -0.5935,-0.5936 -1.1657,-1.1472 -1.75,-1.75 z m 29.75,1.0625 c -0.83913,0.83561 -1.66183,1.65491 -2.6875,2.6875 -1.1168,1.1168 -2.23455,2.25034 -3.34375,3.375 -2.1703,2.23396 -4.365,4.44907 -6.5,6.71875 0.5265,0.52608 1.0362,1.03628 1.5625,1.5625 3.4781,-3.20414 7.16759,-6.70491 10.96875,-10.4375 l 0,-3.90625 z m -139.09375,1.78125 c -2.3334,2.48294 -4.77975,4.87376 -7.15625,7.3125 -1.085,1.10344 -2.1594,2.24611 -3.25,3.34375 -0.19054,0.19198 -0.31991,0.31853 -0.5,0.5 l 0,5.46875 c 1.3265,-1.32377 2.61814,-2.62729 4.125,-4.125 1.0986,-1.09878 2.2066,-2.1583 3.3125,-3.25 2.1471,-2.09474 4.29605,-4.2119 6.46875,-6.28125 l -0.9375,-0.9375 c -0.7021,-0.68385 -1.3643,-1.34295 -2.0625,-2.03125 z m 39.9375,1.15625 c -0.064,0.064 -0.15225,0.0979 -0.21875,0.15625 -5.9857,5.1939 -11.6368,10.7385 -17.1875,16.375 0.7208,0.7205 1.4061,1.4656 2.125,2.1875 2.459,-2.3944 4.47075,-4.7693 6.84375,-7.25 4.6782,-4.9205 5.64875,-5.08965 9.71875,-10.15625 -0.4335,-0.4336 -0.84775,-0.8789 -1.28125,-1.3125 z m 35.8125,0.21875 c -2.1146,2.0529 -4.2294,4.13415 -6.3125,6.21875 -3.3958,3.3958 -6.82385,6.76135 -10.21875,10.15625 l 1.09375,1.09375 c 4.8744,-4.7743 9.70925,-9.58105 14.59375,-14.34375 0.7705,-0.7491 1.2712,-1.28245 1.9375,-1.96875 -0.37,-0.3696 -0.73245,-0.77805 -1.09375,-1.15625 z m 38,0.1875 c -6.2103,6.3243 -12.12365,12.0388 -17.59375,17.0625 l 1.03125,1.875 c 6.13,-5.5472 11.84695,-11.24365 17.78125,-17.34375 -0.5063,-0.4877 -0.71515,-1.10315 -1.21875,-1.59375 z m -70.96875,2.25 c -0.137,0.137 -0.26865,0.33265 -0.40625,0.46875 -5.4157,5.6897 -10.83345,11.3412 -16.28125,17 0.9754,0.9753 1.9716,1.9531 2.9375,2.9375 -0.3733,-0.421 -0.7522,-0.828 -1.125,-1.25 0.1909,-0.1909 0.2508,-0.29445 0.8125,-0.84375 4.5815,-4.5583 9.11145,-9.18125 13.59375,-13.84375 0.8098,-0.8269 1.6269,-1.64275 2.4375,-2.46875 -0.6526,-0.6523 -1.31625,-1.3476 -1.96875,-2 z m 36.46875,0.5625 c -5.4988,5.5835 -11.1147,11.0603 -17,16.25 -0.2525,0.2186 -0.4962,0.4082 -0.75,0.625 0.6965,0.749 1.3679,1.4996 2.0625,2.25 0.4985,-0.4645 1.0025,-0.87745 1.5,-1.34375 5.437,-5.1852 10.86,-10.3937 16.3125,-15.5625 -0.7119,-0.732 -1.4129,-1.48665 -2.125,-2.21875 z m -76.03125,0.0937 c -0.486,0.51421 -0.97865,1.02122 -1.46875,1.53125 -4.20229,4.46301 -8.49051,8.8447 -12.65625,13.34375 l 0,3.65625 c 2.97173,-2.66684 13.11028,-13.60769 16.1875,-16.40625 -0.7078,-0.70788 -1.3632,-1.4087 -2.0625,-2.125 z m 113.84375,0.40625 c -2.476,2.51 -5.0095,5.0041 -7.5625,7.4375 -3.3811,3.2018 -6.71915,6.4222 -10.28125,9.4375 0.1067,0.1078 0.1438,0.15105 1.25,1.21875 0.5851,0.5605 1.1555,1.1362 1.75,1.6875 3.5677,-3.5676 7.1772,-7.1238 10.75,-10.6875 2.1748,-2.1759 4.38415,-4.2968 6.59375,-6.4375 -0.098,-0.098 -0.2315,-0.20025 -0.3125,-0.28125 -0.1016,-0.1025 -0.81365,-0.9056 -0.84375,-0.9375 -1.0395,-1.1102 -0.48785,-0.5047 -1.34375,-1.4375 z M -248,243.875 c -0.21124,0.2331 -0.41163,0.45124 -0.625,0.6875 -2.9463,3.23084 -6.42885,7.02293 -8.96875,9.5625 l 2.71875,2.6875 c 3.16267,-4.0891 4.42223,-5.34875 6.875,-8.15625 l 0,-4.78125 z m -131.625,2.875 -2.0625,2.40625 c 5.7205,4.68218 6.60845,6.13472 11.90625,11.25 1.37994,1.33035 2.77739,2.65766 4.1875,3.96875 l 3.40625,0 c 0.12523,-0.14992 0.24137,-0.30051 0.375,-0.4375 -2.2026,-2.07387 -4.1946,-3.99681 -6.3125,-6.15625 -5.2191,-5.40349 -6.7043,-5.21424 -11.5,-11.03125 z m 75.625,0.3125 c -0.6836,0.66376 -1.3791,1.33638 -2.0625,2 5.05996,4.98957 10.05582,10.05398 14.84375,15.3125 l 3.8125,0 c -0.22781,-0.24246 -0.46219,-0.47873 -0.6875,-0.71875 -5.2982,-5.53332 -10.62305,-11.04594 -15.90625,-16.59375 z m -37.84375,1.25 c -0.7319,0.71212 -1.48745,1.44342 -2.21875,2.15625 4.59691,4.52707 9.117,9.13546 13.46875,13.90625 l 4,0 c -5.0932,-5.34204 -10.17216,-10.70595 -15.25,-16.0625 z m 75.375,0.21875 -2.09375,2.125 c 2.8995,3.40437 5.96535,6.6332 9.03125,9.875 1.22664,1.28937 2.46666,2.57264 3.71875,3.84375 l 4.875,0 c -5.40339,-5.26526 -10.57695,-10.39552 -15.53125,-15.84375 z m -41.0625,2.25 c -0.6543,0.63605 -1.31425,1.23889 -1.96875,1.875 0.1611,0.14276 0.68705,0.65717 0.71875,0.6875 3.95253,3.61829 7.81519,7.33014 11.6875,11.03125 l 4,0 c -4.88714,-4.46564 -9.66538,-9.00424 -14.4375,-13.59375 z M -248,251.75 c -0.26787,0.25277 -0.54468,0.49745 -0.8125,0.75 -1.4744,1.4391 -2.9653,2.87007 -4.4375,4.3125 l 1.53125,1.5 c 1.24543,-1.0824 2.47974,-2.16458 3.71875,-3.25 l 0,-3.3125 z m -134.5625,0.0625 c -0.5531,0.55338 -0.8672,0.80479 -1.4375,1.375 4.395,5.20133 5.93955,5.26161 10.96875,10.46875 0.24211,0.24652 0.47823,0.47756 0.71875,0.71875 l 2.5625,0 c -2.35635,-2.35801 -4.76146,-4.67799 -7.09375,-7.0625 -1.9011,-1.84435 -3.78955,-3.68323 -5.71875,-5.5 z m 37.4375,0.0312 c -0.3698,0.37003 -0.71565,0.76374 -1.09375,1.125 2.0525,2.11475 4.13425,4.19819 6.21875,6.28125 1.70062,1.70056 3.3775,3.41651 5.0625,5.125 l 2.28125,0 c -3.48523,-3.53832 -6.97823,-7.07717 -10.4375,-10.625 -0.7491,-0.77025 -1.34085,-1.24411 -2.03125,-1.90625 z m 74.9375,0.84375 c -0.5782,0.59524 -1.1698,1.21103 -1.8125,1.875 1.0436,1.14544 2.0679,2.27418 3.125,3.40625 1.9766,2.15747 3.99219,4.27806 6,6.40625 l 3.71875,0 c -3.39541,-3.59204 -6.78604,-7.18632 -10.1875,-10.78125 -0.2792,-0.30045 -0.56415,-0.60686 -0.84375,-0.90625 z m -78.40625,1.40625 c -0.9895,0.94575 -1.96,1.8847 -2.9375,2.84375 0.549,0.60118 1.09815,1.22051 1.65625,1.8125 1.97628,2.09173 3.60465,3.69692 5.53125,5.625 l 5.78125,0 c -1.00494,-0.98983 -1.99775,-1.97172 -3,-2.96875 -2.4471,-2.42878 -3.9471,-3.92917 -6.25,-6.46875 -0.2538,-0.27782 -0.53315,-0.56028 -0.78125,-0.84375 z m 37.34375,0.5 c -0.5507,0.50402 -1.136,1.02779 -1.6875,1.53125 2.84986,2.76297 5.72385,5.50427 8.59375,8.25 l 3.21875,0 c -0.62016,-0.57667 -1.21425,-1.14775 -2.625,-2.5 -2.5262,-2.42304 -5.009,-4.82363 -7.5,-7.28125 z m 36.5625,0.71875 -0.34375,0.3125 c -0.6908,0.70922 -1.3754,1.44362 -2.0625,2.15625 1.5824,1.6221 3.19935,3.25353 4.78125,4.875 0.53562,0.56974 1.05907,1.14853 1.59375,1.71875 l 4.4375,0 c -1.59965,-1.70403 -3.20425,-3.40374 -4.78125,-5.125 -1.2184,-1.30468 -2.4272,-2.61161 -3.625,-3.9375 z m -111.59375,0.125 -0.6875,0.6875 -1.34375,1.34375 c 2.07369,2.04442 4.78551,4.53874 7.375,6.90625 l 4.3125,0 c -2.71508,-2.56917 -2.60923,-2.41282 -5.6875,-5.25 -0.9231,-0.84952 -1.86285,-1.70832 -2.78125,-2.5625 -0.4422,-0.41812 -0.8104,-0.76331 -1.1875,-1.125 z m 72.15625,2.25 c -0.803,0.68986 -1.60415,1.40298 -2.40625,2.09375 0.3815,0.34613 0.5416,0.49264 1.75,1.59375 1.07834,0.99469 2.14455,1.99813 3.21875,3 l 4.125,0 c -1.96302,-1.93449 -3.92636,-3.85605 -5.875,-5.8125 -0.5417,-0.56002 -0.6238,-0.68486 -0.8125,-0.875 z m -76.5,0.75 -1.875,1.0625 c 1.49655,1.65367 3.00796,3.27231 4.53125,4.875 l 2.90625,0 c -1.92727,-2.02533 -3.80126,-4.01993 -5.5625,-5.9375 z m 142.625,0.75 c -0.0604,0.0647 -0.12715,0.12279 -0.1875,0.1875 -0.6478,0.68313 -1.2931,1.37562 -1.9375,2.0625 0.414,0.43529 0.8382,0.90654 1.25,1.34375 0.2884,0.30363 0.58258,0.58596 0.875,0.875 l 0,-4.46875 z m -104.5625,0.0625 c -0.5476,0.54751 -1.0692,1.08611 -1.625,1.625 1.11093,1.17146 2.23259,2.3301 3.34375,3.5 l 3.15625,0 c -1.62433,-1.70699 -3.26385,-3.39809 -4.875,-5.125 z m 73.5,0.65625 -1.96875,1.09375 c 1.03226,1.144 2.07805,2.25646 3.125,3.375 l 3,0 c -1.43189,-1.51866 -2.81896,-3.00887 -4.15625,-4.46875 z m -114.6875,1.5625 c -0.1076,0.10784 -0.1252,0.1694 -1.1875,1.28125 -0.51011,0.53329 -1.05211,1.08258 -1.5625,1.625 l 5.28125,0 c -0.85456,-0.95352 -1.70427,-1.92873 -2.53125,-2.90625 z m 75.71875,0.25 c -0.6837,0.68385 -1.40595,1.32061 -2.09375,2 0.24469,0.21254 0.47484,0.4426 0.71875,0.65625 l 4.40625,0 c -1.00798,-0.88268 -2.01399,-1.77868 -3.03125,-2.65625 z m -38.0625,1.0625 c -0.52139,0.52134 -1.06148,1.0682 -1.59375,1.59375 l 3.34375,0 c -0.1141,-0.1046 -0.2296,-0.20799 -0.34375,-0.3125 -0.9702,-0.87406 -1.13185,-1.03087 -1.40625,-1.28125 z"
           style="fill:#ff0000;fill-opacity:0.42346939;stroke:none"
           inkscape:connector-curvature="0" />
      </g>
    </pattern>
  </defs>
  <sodipodi:namedview
     id="base"
     pagecolor="#ffffff"
     bordercolor="#666666"
     borderopacity="1.0"
     inkscape:pageopacity="0.0"
     inkscape:pageshadow="2"
     inkscape:zoom="0.98994949"
     inkscape:cx="1134.8328"
     inkscape:cy="752.57809"
     inkscape:document-units="px"
     inkscape:current-layer="g7588"
     showgrid="true"
     inkscape:window-width="1920"
     inkscape:window-height="1054"
     inkscape:window-x="1600"
     inkscape:window-y="0"
     inkscape:window-maximized="1">
    <inkscape:grid
       type="xygrid"
       id="grid7584"
       empspacing="5"
       visible="true"
       enabled="true"
       snapvisiblegridlinesonly="true"
       spacingx="5px"
       spacingy="5px" />
  </sodipodi:namedview>
  <metadata
     id="metadata7581">
    <rdf:RDF>
      <cc:Work
         rdf:about="">
        <dc:format>image/svg+xml</dc:format>
        <dc:type
           rdf:resource="http://purl.org/dc/dcmitype/StillImage" />
        <dc:title></dc:title>
      </cc:Work>
    </rdf:RDF>
  </metadata>
  <g
     inkscape:label="Layer 1"
     inkscape:groupmode="layer"
     id="layer1">
    <g
       id="g7588">
      <rect
         style="fill:url(#pattern24257);stroke:none"
         width="150"
         height="150"
         x="900"
         y="202.36218"
         id="rect24251" />
      <path
         style="fill:#ff0000;fill-opacity:0.42346939;stroke:none"
         d="m 4053.9063,1111.0185 c -1.2868,0.091 -2.5881,0.1916 -3.875,0.2812 -7.0073,0.4033 -14.0202,0.6153 -21.0313,0.7812 -0.013,1.1069 -0.02,2.2059 -0.031,3.3126 0.2153,-0.013 0.9246,-0.058 0.9688,-0.063 7.0043,-0.3742 13.9941,-0.4114 21,-0.6562 0.941,-0.025 1.9024,-0.064 2.8438,-0.094 0.015,-0.6006 0.013,-1.2118 0.031,-1.8124 0.015,-0.5831 0.077,-1.1674 0.094,-1.75 z m -24.9688,5.7812 c 0,0.8351 0.013,1.6648 0,2.5 5.8648,0.3403 11.7539,0.5459 17.625,0.7188 2.0603,0.025 4.1268,0 6.1875,0.031 l 0,-2.125 c -5.5466,-0.3889 -11.1013,-0.7514 -16.6563,-0.9375 -4.8094,-0.1229 -4.934,-0.1112 -7.1562,-0.1875 z m 24.9375,4.4375 c -6.4429,0.8227 -7.4259,0.558 -13.875,1.125 -3.7925,0.316 -7.2077,0.6763 -11,0.9687 -0.1424,0.844 0.019,1.6737 0.031,2.75 4.0425,-0.2735 7.7072,-0.4187 11.75,-0.625 4.3679,-0.2012 9.5332,-0.4373 13.125,-0.4374 l -0.031,-3.7813 z m -24.9063,6.2187 c 2e-4,0.8673 -0.029,1.7889 -0.031,2.6563 0.2564,0.016 0.5255,0.018 0.7812,0.031 3.4961,0.1904 5.6989,0.1683 9.2188,0.1562 1.5793,10e-5 3.1395,-0.051 4.7188,-0.062 3.1145,-0.046 6.2605,-0.031 9.375,-0.125 -2e-4,-0.744 -0.031,-1.5055 -0.031,-2.25 -7.3032,-0.2989 -15.3446,-0.4794 -24.0313,-0.4063 z m 0.031,4.5938 c -0.014,1.1555 -0.048,2.313 -0.062,3.4688 8.0008,-0.068 16.0042,0.039 24,0.5937 0.3397,0.026 0.7225,0.035 1.0625,0.062 0.039,-1.1567 0.083,-2.3125 0.125,-3.4688 -0.6954,-0.026 -1.4296,-0.01 -2.125,-0.031 -7.669,-0.2019 -15.3317,-0.398 -23,-0.625 z"
         id="path13971-0-8"
         inkscape:connector-curvature="0" />
      <use
         height="1052.3622"
         width="744.09448"
         id="use24010"
         transform="translate(1206.375,317.83093)"
         xlink:href="#g7652"
         inkscape:tiled-clone-of="#g7652"
         y="0"
         x="0" />
    </g>
  </g>
</svg>
